<?xml version="1.0" encoding="UTF-8" standalone="no"?>
<!-- Created with Inkscape (http://www.inkscape.org/) -->

<svg
   xmlns:dc="http://purl.org/dc/elements/1.1/"
   xmlns:cc="http://creativecommons.org/ns#"
   xmlns:rdf="http://www.w3.org/1999/02/22-rdf-syntax-ns#"
   xmlns:svg="http://www.w3.org/2000/svg"
   xmlns="http://www.w3.org/2000/svg"
   xmlns:xlink="http://www.w3.org/1999/xlink"
   xmlns:sodipodi="http://sodipodi.sourceforge.net/DTD/sodipodi-0.dtd"
   xmlns:inkscape="http://www.inkscape.org/namespaces/inkscape"
   width="990"
   height="765"
   id="svg2"
   version="1.1"
   inkscape:version="0.48.4 r9939"
   sodipodi:docname="score.svg">
  <defs
     id="defs4" />
  <sodipodi:namedview
     id="base"
     pagecolor="#ffffff"
     bordercolor="#666666"
     borderopacity="1.0"
     inkscape:pageopacity="0.0"
     inkscape:pageshadow="2"
     inkscape:zoom="0.35355339"
     inkscape:cx="599.97009"
     inkscape:cy="1059.657"
     inkscape:document-units="px"
     inkscape:current-layer="layer1"
     showgrid="false"
     units="in"
     width="11.69in"
     inkscape:window-width="1918"
     inkscape:window-height="1028"
     inkscape:window-x="0"
     inkscape:window-y="25"
     inkscape:window-maximized="0"
     showguides="true"
     inkscape:guide-bbox="true"
     inkscape:snap-global="false">
    <sodipodi:guide
       orientation="1,0"
       position="1050.1055,2056.1133"
       id="guide3004" />
    <sodipodi:guide
       orientation="0,1"
       position="-17.148437,1116"
       id="guide3006" />
    <sodipodi:guide
       orientation="1,0"
       position="979,1138"
       id="guide4565" />
  </sodipodi:namedview>
  <metadata
     id="metadata7">
    <rdf:RDF>
      <cc:Work
         rdf:about="">
        <dc:format>image/svg+xml</dc:format>
        <dc:type
           rdf:resource="http://purl.org/dc/dcmitype/StillImage" />
        <dc:title></dc:title>
      </cc:Work>
    </rdf:RDF>
  </metadata>
  <g
     inkscape:label="Layer 1"
     inkscape:groupmode="layer"
     id="layer1"
     transform="translate(0,-287.3594)"
     sodipodi:insensitive="true">
    <g
       id="g4915"
       transform="matrix(6.2266329,0,0,6.2266329,-308.5826,-267.91135)">
      <text
         id="text4875"
         font-size="2.2001"
         transform="translate(24.9929,2.8453)"
         style="font-size:2.20009995px;text-anchor:start;fill:currentColor;font-family:Century Schoolbook L">
        <tspan
           id="tspan4877" />
      </text>
      <line
         id="line4879"
         y2="0"
         x2="22.7122"
         y1="0"
         x1="0.050000001"
         transform="translate(2.8453,3.8953)"
         style="stroke:currentColor;stroke-width:0.1;stroke-linecap:round;stroke-linejoin:round" />
      <line
         id="line4881"
         y2="0"
         x2="22.7122"
         y1="0"
         x1="0.050000001"
         transform="translate(2.8453,5.8953)"
         style="stroke:currentColor;stroke-width:0.1;stroke-linecap:round;stroke-linejoin:round" />
      <line
         id="line4883"
         y2="0"
         x2="22.7122"
         y1="0"
         x1="0.050000001"
         transform="translate(2.8453,7.8953)"
         style="stroke:currentColor;stroke-width:0.1;stroke-linecap:round;stroke-linejoin:round" />
      <rect
         id="rect4885"
         ry="0"
         height="4"
         width="0.19"
         y="-2"
         x="0"
         transform="translate(25.4175,5.8953)"
         style="fill:currentColor" />
      <a
         id="a4887"
         xlink:href="textedit:///home/danny/dev/python/steel/notation/section1-3.ly:44:12:13">
        <path
           id="path4889"
           d="m -23,-116 c 0,28 11,42 40,42 33,0 78,-13 119,-31 L 4,53 c -7,9 -10,17 -10,25 0,34 50,66 87,99 25,22 37,52 37,83 0,24 -8,49 -25,69 l -35,42 c -3,3 -4,7 -4,10 0,9 9,15 17,15 4,0 8,-1 11,-5 L 233,211 c 7,-9 10,-17 10,-25 0,-34 -50,-66 -87,-99 -25,-22 -37,-52 -37,-83 0,-24 7,-49 24,-69 l 84,-99 c 3,-3 4,-7 4,-10 0,-9 -8,-16 -16,-16 -4,0 -9,2 -12,6 -18,21 -63,38 -97,38 -41,0 -53,-26 -53,-67 0,-35 11,-74 28,-94 5,-6 0,-13 -6,-13 -2,0 -4,0 -6,2 -45,54 -92,148 -92,202 z"
           transform="matrix(0.004,0,0,-0.004,15.7024,5.8953)"
           inkscape:connector-curvature="0"
           style="fill:currentColor" />
      </a>
      <a
         id="a4891"
         xlink:href="textedit:///home/danny/dev/python/steel/notation/section1-3.ly:45:12:13">
        <path
           id="path4893"
           d="m 220,138 c 56,0 109,-29 109,-91 0,-72 -56,-121 -103,-149 -36,-21 -76,-36 -117,-36 -56,0 -109,29 -109,91 0,72 56,121 103,149 36,21 76,36 117,36 z"
           transform="matrix(0.004,0,0,-0.004,20.2585,7.8953)"
           inkscape:connector-curvature="0"
           style="fill:currentColor" />
      </a>
      <rect
         id="rect4895"
         ry="0.039999999"
         height="3.3122001"
         width="0.13"
         y="-1.5"
         x="-0.064999998"
         transform="translate(21.5097,5.8953)"
         style="fill:currentColor" />
      <a
         id="a4897"
         xlink:href="textedit:///home/danny/dev/python/steel/notation/section1-3.ly:43:12:13">
        <path
           id="path4899"
           d="m 220,138 c 56,0 109,-29 109,-91 0,-72 -56,-121 -103,-149 -36,-21 -76,-36 -117,-36 -56,0 -109,29 -109,91 0,72 56,121 103,149 36,21 76,36 117,36 z"
           transform="matrix(0.004,0,0,-0.004,10.78,7.8953)"
           inkscape:connector-curvature="0"
           style="fill:currentColor" />
      </a>
      <path
         id="path4901"
         d="m 490,-250 h -92 c -6,0 -10,4 -10,10 v 480 c 0,6 4,10 10,10 h 92 c 6,0 10,-4 10,-10 v -480 c 0,-6 -4,-10 -10,-10 z m -220,0 h -93 c -6,0 -10,4 -10,10 v 480 c 0,6 4,10 10,10 h 93 c 6,0 10,-4 10,-10 v -480 c 0,-6 -4,-10 -10,-10 z"
         transform="matrix(0.004,0,0,-0.004,2.9753,5.8953)"
         inkscape:connector-curvature="0"
         style="fill:currentColor" />
      <path
         id="path4903"
         d="m 204,307 c 22,14 44,29 60,50 11,15 19,33 27,50 2,4 5,6 9,6 6,0 13,-5 13,-14 V 154 h 72 c 10,0 15,-7 15,-14 0,-7 -5,-15 -15,-15 h -72 v -8 c 0,-48 27,-94 72,-94 8,0 12,-5 12,-11 C 397,6 393,0 385,0 341,0 298,13 254,13 210,13 167,0 123,0 c -8,0 -12,6 -12,12 0,6 4,11 12,11 45,0 73,46 73,94 v 8 H 29 c -23,0 -31,14 -31,23 0,3 1,5 2,6 80,93 138,207 138,330 0,9 6,16 13,16 h 3 c 23,-7 47,-13 71,-13 24,0 48,6 71,13 2,1 3,1 5,1 11,0 18,-10 12,-17 L 29,154 h 167 v 131 c 0,8 1,17 8,22 z"
         transform="matrix(0.004,0,0,-0.004,7.1753,7.9097)"
         inkscape:connector-curvature="0"
         style="fill:currentColor" />
      <path
         id="path4905"
         d="m 150,477 c -29,0 -59,-8 -59,-33 0,-22 36,-25 36,-47 0,-32 -26,-58 -58,-58 -32,0 -57,26 -57,58 0,65 67,103 138,103 91,0 169,-33 169,-114 0,-43 -4,-82 -42,-100 -9,-4 -14,-12 -14,-21 0,-9 5,-18 14,-22 41,-19 56,-57 56,-103 C 333,48 254,0 154,0 75,0 0,42 0,113 c 0,36 30,66 66,66 36,0 65,-30 65,-66 0,-25 -40,-28 -40,-53 0,-27 32,-37 63,-37 49,0 63,61 63,117 v 16 c 0,54 -2,94 -50,94 H 87 c -10,0 -14,8 -14,15 0,7 4,14 14,14 h 80 c 49,0 50,43 50,99 v 8 c 0,54 -18,91 -67,91 z"
         transform="matrix(0.004,0,0,-0.004,7.3119,5.8953)"
         inkscape:connector-curvature="0"
         style="fill:currentColor" />
      <rect
         id="rect4907"
         ry="0.039999999"
         height="3.3122001"
         width="0.13"
         y="-1.5"
         x="-0.064999998"
         transform="translate(12.0312,5.8953)"
         style="fill:currentColor" />
    </g>
    <g
       id="g5228"
       transform="matrix(6.2266329,0,0,6.2266329,-316.36,-201.48372)">
      <text
         id="text5186"
         font-size="2.2001"
         transform="translate(24.9929,2.8453)"
         style="font-size:2.20009995px;text-anchor:start;fill:currentColor;font-family:Century Schoolbook L">
        <tspan
           id="tspan5188" />
      </text>
      <line
         id="line5190"
         y2="0"
         x2="22.7122"
         y1="0"
         x1="0.050000001"
         transform="translate(2.8453,3.8953)"
         style="stroke:currentColor;stroke-width:0.1;stroke-linecap:round;stroke-linejoin:round" />
      <line
         id="line5192"
         y2="0"
         x2="22.7122"
         y1="0"
         x1="0.050000001"
         transform="translate(2.8453,5.8953)"
         style="stroke:currentColor;stroke-width:0.1;stroke-linecap:round;stroke-linejoin:round" />
      <line
         id="line5194"
         y2="0"
         x2="22.7122"
         y1="0"
         x1="0.050000001"
         transform="translate(2.8453,7.8953)"
         style="stroke:currentColor;stroke-width:0.1;stroke-linecap:round;stroke-linejoin:round" />
      <rect
         id="rect5196"
         ry="0"
         height="4"
         width="0.19"
         y="-2"
         x="0"
         transform="translate(25.4175,5.8953)"
         style="fill:currentColor" />
      <a
         id="a5198"
         xlink:href="textedit:///home/danny/dev/python/steel/notation/section1-4.ly:72:12:13">
        <path
           id="path5200"
           d="m -23,-116 c 0,28 11,42 40,42 33,0 78,-13 119,-31 L 4,53 c -7,9 -10,17 -10,25 0,34 50,66 87,99 25,22 37,52 37,83 0,24 -8,49 -25,69 l -35,42 c -3,3 -4,7 -4,10 0,9 9,15 17,15 4,0 8,-1 11,-5 L 233,211 c 7,-9 10,-17 10,-25 0,-34 -50,-66 -87,-99 -25,-22 -37,-52 -37,-83 0,-24 7,-49 24,-69 l 84,-99 c 3,-3 4,-7 4,-10 0,-9 -8,-16 -16,-16 -4,0 -9,2 -12,6 -18,21 -63,38 -97,38 -41,0 -53,-26 -53,-67 0,-35 11,-74 28,-94 5,-6 0,-13 -6,-13 -2,0 -4,0 -6,2 -45,54 -92,148 -92,202 z"
           transform="matrix(0.004,0,0,-0.004,18.0281,5.8953)"
           inkscape:connector-curvature="0"
           style="fill:currentColor" />
      </a>
      <a
         id="a5202"
         xlink:href="textedit:///home/danny/dev/python/steel/notation/section1-4.ly:73:12:13">
        <path
           id="path5204"
           d="m 220,138 c 56,0 109,-29 109,-91 0,-72 -56,-121 -103,-149 -36,-21 -76,-36 -117,-36 -56,0 -109,29 -109,91 0,72 56,121 103,149 36,21 76,36 117,36 z"
           transform="matrix(0.004,0,0,-0.004,21.4214,7.8953)"
           inkscape:connector-curvature="0"
           style="fill:currentColor" />
      </a>
      <rect
         id="rect5206"
         ry="0.039999999"
         height="3.3122001"
         width="0.13"
         y="-1.5"
         x="-0.064999998"
         transform="translate(22.6726,5.8953)"
         style="fill:currentColor" />
      <a
         id="a5208"
         xlink:href="textedit:///home/danny/dev/python/steel/notation/section1-4.ly:70:12:13">
        <path
           id="path5210"
           d="m 220,138 c 56,0 109,-29 109,-91 0,-72 -56,-121 -103,-149 -36,-21 -76,-36 -117,-36 -56,0 -109,29 -109,91 0,72 56,121 103,149 36,21 76,36 117,36 z"
           transform="matrix(0.004,0,0,-0.004,10.8753,7.8953)"
           inkscape:connector-curvature="0"
           style="fill:currentColor" />
      </a>
      <path
         id="path5212"
         d="m 490,-250 h -92 c -6,0 -10,4 -10,10 v 480 c 0,6 4,10 10,10 h 92 c 6,0 10,-4 10,-10 v -480 c 0,-6 -4,-10 -10,-10 z m -220,0 h -93 c -6,0 -10,4 -10,10 v 480 c 0,6 4,10 10,10 h 93 c 6,0 10,-4 10,-10 v -480 c 0,-6 -4,-10 -10,-10 z"
         transform="matrix(0.004,0,0,-0.004,2.9753,5.8953)"
         inkscape:connector-curvature="0"
         style="fill:currentColor" />
      <path
         id="path5214"
         d="m 359,27 c -49,0 -75,42 -75,75 0,38 27,77 72,77 4,0 9,0 14,-1 -28,37 -72,59 -120,59 C 144,237 137,164 137,51 V 0 -51 c 0,-113 7,-187 113,-187 80,0 139,70 158,151 2,7 7,10 12,10 6,0 13,-4 13,-12 0,-94 -105,-174 -183,-174 -68,0 -137,21 -184,70 C 17,-142 0,-71 0,0 c 0,71 17,142 66,193 47,49 116,69 184,69 87,0 160,-64 175,-150 1,-5 1,-9 1,-13 0,-40 -30,-72 -67,-72 z"
         transform="matrix(0.004,0,0,-0.004,7.1753,5.8953)"
         inkscape:connector-curvature="0"
         style="fill:currentColor" />
      <rect
         id="rect5216"
         ry="0.039999999"
         height="3.3122001"
         width="0.13"
         y="-1.5"
         x="-0.064999998"
         transform="translate(12.1264,5.8953)"
         style="fill:currentColor" />
      <a
         id="a5218"
         xlink:href="textedit:///home/danny/dev/python/steel/notation/section1-4.ly:71:12:13">
        <path
           id="path5220"
           d="m -23,-116 c 0,28 11,42 40,42 33,0 78,-13 119,-31 L 4,53 c -7,9 -10,17 -10,25 0,34 50,66 87,99 25,22 37,52 37,83 0,24 -8,49 -25,69 l -35,42 c -3,3 -4,7 -4,10 0,9 9,15 17,15 4,0 8,-1 11,-5 L 233,211 c 7,-9 10,-17 10,-25 0,-34 -50,-66 -87,-99 -25,-22 -37,-52 -37,-83 0,-24 7,-49 24,-69 l 84,-99 c 3,-3 4,-7 4,-10 0,-9 -8,-16 -16,-16 -4,0 -9,2 -12,6 -18,21 -63,38 -97,38 -41,0 -53,-26 -53,-67 0,-35 11,-74 28,-94 5,-6 0,-13 -6,-13 -2,0 -4,0 -6,2 -45,54 -92,148 -92,202 z"
           transform="matrix(0.004,0,0,-0.004,14.6348,5.8953)"
           inkscape:connector-curvature="0"
           style="fill:currentColor" />
      </a>
    </g>
    <path
       sodipodi:type="arc"
       style="fill:none;stroke:#3b3b3b;stroke-width:2;stroke-miterlimit:4;stroke-opacity:1;stroke-dasharray:none"
       id="path5250"
       sodipodi:cx="1053"
       sodipodi:cy="1112.8999"
       sodipodi:rx="105"
       sodipodi:ry="50"
       d="m 1158,1112.8999 c 0,27.6142 -47.0101,50 -105,50 -57.9899,0 -105,-22.3858 -105,-50 0,-27.6142 47.0101,-50 105,-50 57.9899,0 105,22.3858 105,50 z"
       transform="matrix(0.7921236,0,0,0.86345955,219.10497,-1024.5135)" />
    <path
       transform="matrix(0.7921236,0,0,0.86345955,219.10497,-906.5135)"
       d="m 1158,1112.8999 c 0,27.6142 -47.0101,50 -105,50 -57.9899,0 -105,-22.3858 -105,-50 0,-27.6142 47.0101,-50 105,-50 57.9899,0 105,22.3858 105,50 z"
       sodipodi:ry="50"
       sodipodi:rx="105"
       sodipodi:cy="1112.8999"
       sodipodi:cx="1053"
       id="path5252"
       style="fill:none;stroke:#3b3b3b;stroke-width:2;stroke-miterlimit:4;stroke-opacity:1;stroke-dasharray:none"
       sodipodi:type="arc" />
    <path
       sodipodi:type="arc"
       style="fill:none;stroke:#3b3b3b;stroke-width:2;stroke-miterlimit:4;stroke-opacity:1;stroke-dasharray:none"
       id="path5254"
       sodipodi:cx="1053"
       sodipodi:cy="1112.8999"
       sodipodi:rx="105"
       sodipodi:ry="50"
       d="m 1158,1112.8999 c 0,27.6142 -47.0101,50 -105,50 -57.9899,0 -105,-22.3858 -105,-50 0,-27.6142 47.0101,-50 105,-50 57.9899,0 105,22.3858 105,50 z"
       transform="matrix(0.7921236,0,0,0.86345955,219.10497,-1146.5135)" />
    <path
       transform="matrix(0.7921236,0,0,0.86345955,219.10497,-1266.5135)"
       d="m 1158,1112.8999 c 0,27.6142 -47.0101,50 -105,50 -57.9899,0 -105,-22.3858 -105,-50 0,-27.6142 47.0101,-50 105,-50 57.9899,0 105,22.3858 105,50 z"
       sodipodi:ry="50"
       sodipodi:rx="105"
       sodipodi:cy="1112.8999"
       sodipodi:cx="1053"
       id="path5256"
       style="fill:none;stroke:#3b3b3b;stroke-width:2;stroke-miterlimit:4;stroke-opacity:1;stroke-dasharray:none"
       sodipodi:type="arc" />
    <path
       sodipodi:type="arc"
       style="fill:none;stroke:#3b3b3b;stroke-width:2;stroke-miterlimit:4;stroke-opacity:1;stroke-dasharray:none"
       id="path5258"
       sodipodi:cx="1053"
       sodipodi:cy="1112.8999"
       sodipodi:rx="105"
       sodipodi:ry="50"
       d="m 1158,1112.8999 c 0,27.6142 -47.0101,50 -105,50 -57.9899,0 -105,-22.3858 -105,-50 0,-27.6142 47.0101,-50 105,-50 57.9899,0 105,22.3858 105,50 z"
       transform="matrix(0.7921236,0,0,0.86345955,219.10497,-782.5135)" />
    <path
       transform="matrix(0.7921236,0,0,0.86345955,21.115071,-782.5135)"
       d="m 1158,1112.8999 c 0,27.6142 -47.0101,50 -105,50 -57.9899,0 -105,-22.3858 -105,-50 0,-27.6142 47.0101,-50 105,-50 57.9899,0 105,22.3858 105,50 z"
       sodipodi:ry="50"
       sodipodi:rx="105"
       sodipodi:cy="1112.8999"
       sodipodi:cx="1053"
       id="path5260"
       style="fill:none;stroke:#3b3b3b;stroke-width:2;stroke-miterlimit:4;stroke-opacity:1;stroke-dasharray:none"
       sodipodi:type="arc" />
    <path
       sodipodi:type="arc"
       style="fill:none;stroke:#3b3b3b;stroke-width:2;stroke-miterlimit:4;stroke-opacity:1;stroke-dasharray:none"
       id="path5262"
       sodipodi:cx="1053"
       sodipodi:cy="1112.8999"
       sodipodi:rx="105"
       sodipodi:ry="50"
       d="m 1158,1112.8999 c 0,27.6142 -47.0101,50 -105,50 -57.9899,0 -105,-22.3858 -105,-50 0,-27.6142 47.0101,-50 105,-50 57.9899,0 105,22.3858 105,50 z"
       transform="matrix(0.7921236,0,0,0.86345955,26.771926,-906.5135)" />
    <path
       sodipodi:type="arc"
       style="fill:none;stroke:#3b3b3b;stroke-width:2;stroke-miterlimit:4;stroke-opacity:1;stroke-dasharray:none"
       id="path5264"
       sodipodi:cx="1053"
       sodipodi:cy="1112.8999"
       sodipodi:rx="105"
       sodipodi:ry="50"
       d="m 1158,1112.8999 c 0,27.6142 -47.0101,50 -105,50 -57.9899,0 -105,-22.3858 -105,-50 0,-27.6142 47.0101,-50 105,-50 57.9899,0 105,22.3858 105,50 z"
       transform="matrix(0.7921236,0,0,0.86345955,21.115071,-669.37642)" />
    <path
       transform="matrix(0.7921236,0,0,0.86345955,21.115071,-559.06776)"
       d="m 1158,1112.8999 c 0,27.6142 -47.0101,50 -105,50 -57.9899,0 -105,-22.3858 -105,-50 0,-27.6142 47.0101,-50 105,-50 57.9899,0 105,22.3858 105,50 z"
       sodipodi:ry="50"
       sodipodi:rx="105"
       sodipodi:cy="1112.8999"
       sodipodi:cx="1053"
       id="path5266"
       style="fill:none;stroke:#3b3b3b;stroke-width:2;stroke-miterlimit:4;stroke-opacity:1;stroke-dasharray:none"
       sodipodi:type="arc" />
    <path
       sodipodi:type="arc"
       style="fill:none;stroke:#3b3b3b;stroke-width:2;stroke-miterlimit:4;stroke-opacity:1;stroke-dasharray:none"
       id="path5268"
       sodipodi:cx="1053"
       sodipodi:cy="1112.8999"
       sodipodi:rx="105"
       sodipodi:ry="50"
       d="m 1158,1112.8999 c 0,27.6142 -47.0101,50 -105,50 -57.9899,0 -105,-22.3858 -105,-50 0,-27.6142 47.0101,-50 105,-50 57.9899,0 105,22.3858 105,50 z"
       transform="matrix(0.7921236,0,0,0.86345955,-179.70325,-559.06776)" />
    <path
       transform="matrix(0.7921236,0,0,0.86345955,-179.70325,-672.20484)"
       d="m 1158,1112.8999 c 0,27.6142 -47.0101,50 -105,50 -57.9899,0 -105,-22.3858 -105,-50 0,-27.6142 47.0101,-50 105,-50 57.9899,0 105,22.3858 105,50 z"
       sodipodi:ry="50"
       sodipodi:rx="105"
       sodipodi:cy="1112.8999"
       sodipodi:cx="1053"
       id="path5270"
       style="fill:none;stroke:#3b3b3b;stroke-width:2;stroke-miterlimit:4;stroke-opacity:1;stroke-dasharray:none"
       sodipodi:type="arc" />
    <path
       sodipodi:type="arc"
       style="fill:none;stroke:#3b3b3b;stroke-width:2;stroke-miterlimit:4;stroke-opacity:1;stroke-dasharray:none"
       id="path5272"
       sodipodi:cx="1053"
       sodipodi:cy="1112.8999"
       sodipodi:rx="105"
       sodipodi:ry="50"
       d="m 1158,1112.8999 c 0,27.6142 -47.0101,50 -105,50 -57.9899,0 -105,-22.3858 -105,-50 0,-27.6142 47.0101,-50 105,-50 57.9899,0 105,22.3858 105,50 z"
       transform="matrix(0.7921236,0,0,0.86345955,-179.70325,-779.68507)" />
    <path
       transform="matrix(0.7921236,0,0,0.86345955,-386.17843,-567.55304)"
       d="m 1158,1112.8999 c 0,27.6142 -47.0101,50 -105,50 -57.9899,0 -105,-22.3858 -105,-50 0,-27.6142 47.0101,-50 105,-50 57.9899,0 105,22.3858 105,50 z"
       sodipodi:ry="50"
       sodipodi:rx="105"
       sodipodi:cy="1112.8999"
       sodipodi:cx="1053"
       id="path5274"
       style="fill:none;stroke:#3b3b3b;stroke-width:2;stroke-miterlimit:4;stroke-opacity:1;stroke-dasharray:none"
       sodipodi:type="arc" />
    <path
       sodipodi:type="arc"
       style="fill:none;stroke:#3b3b3b;stroke-width:2;stroke-miterlimit:4;stroke-opacity:1;stroke-dasharray:none"
       id="path5276"
       sodipodi:cx="1053"
       sodipodi:cy="1112.8999"
       sodipodi:rx="105"
       sodipodi:ry="50"
       d="m 1158,1112.8999 c 0,27.6142 -47.0101,50 -105,50 -57.9899,0 -105,-22.3858 -105,-50 0,-27.6142 47.0101,-50 105,-50 57.9899,0 105,22.3858 105,50 z"
       transform="matrix(0.7921236,0,0,0.86345955,-386.17843,-677.86169)" />
    <path
       sodipodi:type="arc"
       style="fill:none;stroke:#3b3b3b;stroke-width:2;stroke-miterlimit:4;stroke-opacity:1;stroke-dasharray:none"
       id="path5278"
       sodipodi:cx="1053"
       sodipodi:cy="1112.8999"
       sodipodi:rx="105"
       sodipodi:ry="50"
       d="m 1158,1112.8999 c 0,27.6142 -47.0101,50 -105,50 -57.9899,0 -105,-22.3858 -105,-50 0,-27.6142 47.0101,-50 105,-50 57.9899,0 105,22.3858 105,50 z"
       transform="matrix(0.7921236,0,0,0.86345955,-578.51147,-567.55304)" />
    <path
       transform="matrix(0.7921236,0,0,0.86345955,-578.51147,-451.58753)"
       d="m 1158,1112.8999 c 0,27.6142 -47.0101,50 -105,50 -57.9899,0 -105,-22.3858 -105,-50 0,-27.6142 47.0101,-50 105,-50 57.9899,0 105,22.3858 105,50 z"
       sodipodi:ry="50"
       sodipodi:rx="105"
       sodipodi:cy="1112.8999"
       sodipodi:cx="1053"
       id="path5280"
       style="fill:none;stroke:#3b3b3b;stroke-width:2;stroke-miterlimit:4;stroke-opacity:1;stroke-dasharray:none"
       sodipodi:type="arc" />
    <path
       sodipodi:type="arc"
       style="fill:none;stroke:#3b3b3b;stroke-width:2;stroke-miterlimit:4;stroke-opacity:1;stroke-dasharray:none"
       id="path5282"
       sodipodi:cx="1053"
       sodipodi:cy="1112.8999"
       sodipodi:rx="105"
       sodipodi:ry="50"
       d="m 1158,1112.8999 c 0,27.6142 -47.0101,50 -105,50 -57.9899,0 -105,-22.3858 -105,-50 0,-27.6142 47.0101,-50 105,-50 57.9899,0 105,22.3858 105,50 z"
       transform="matrix(0.7921236,0,0,0.86345955,-386.17843,-451.58753)" />
    <path
       transform="matrix(0.7921236,0,0,0.86345955,-179.70325,-451.58753)"
       d="m 1158,1112.8999 c 0,27.6142 -47.0101,50 -105,50 -57.9899,0 -105,-22.3858 -105,-50 0,-27.6142 47.0101,-50 105,-50 57.9899,0 105,22.3858 105,50 z"
       sodipodi:ry="50"
       sodipodi:rx="105"
       sodipodi:cy="1112.8999"
       sodipodi:cx="1053"
       id="path5284"
       style="fill:none;stroke:#3b3b3b;stroke-width:2;stroke-miterlimit:4;stroke-opacity:1;stroke-dasharray:none"
       sodipodi:type="arc" />
    <path
       sodipodi:type="arc"
       style="fill:none;stroke:#3b3b3b;stroke-width:2;stroke-miterlimit:4;stroke-opacity:1;stroke-dasharray:none"
       id="path5286"
       sodipodi:cx="1053"
       sodipodi:cy="1112.8999"
       sodipodi:rx="105"
       sodipodi:ry="50"
       d="m 1158,1112.8999 c 0,27.6142 -47.0101,50 -105,50 -57.9899,0 -105,-22.3858 -105,-50 0,-27.6142 47.0101,-50 105,-50 57.9899,0 105,22.3858 105,50 z"
       transform="matrix(0.7921236,0,0,0.86345955,-386.17843,-344.59258)" />
    <path
       transform="matrix(0.7921236,0,0,0.86345955,-575.68305,-344.59258)"
       d="m 1158,1112.8999 c 0,27.6142 -47.0101,50 -105,50 -57.9899,0 -105,-22.3858 -105,-50 0,-27.6142 47.0101,-50 105,-50 57.9899,0 105,22.3858 105,50 z"
       sodipodi:ry="50"
       sodipodi:rx="105"
       sodipodi:cy="1112.8999"
       sodipodi:cx="1053"
       id="path5288"
       style="fill:none;stroke:#3b3b3b;stroke-width:2;stroke-miterlimit:4;stroke-opacity:1;stroke-dasharray:none"
       sodipodi:type="arc" />
    <path
       sodipodi:type="arc"
       style="fill:none;stroke:#3b3b3b;stroke-width:2;stroke-miterlimit:4;stroke-opacity:1;stroke-dasharray:none"
       id="path5290"
       sodipodi:cx="1053"
       sodipodi:cy="1112.8999"
       sodipodi:rx="105"
       sodipodi:ry="50"
       d="m 1158,1112.8999 c 0,27.6142 -47.0101,50 -105,50 -57.9899,0 -105,-22.3858 -105,-50 0,-27.6142 47.0101,-50 105,-50 57.9899,0 105,22.3858 105,50 z"
       transform="matrix(0.7921236,0,0,0.86345955,-575.68305,-234.28392)" />
    <path
       transform="matrix(0.7921236,0,0,0.86345955,-389.00686,-234.28392)"
       d="m 1158,1112.8999 c 0,27.6142 -47.0101,50 -105,50 -57.9899,0 -105,-22.3858 -105,-50 0,-27.6142 47.0101,-50 105,-50 57.9899,0 105,22.3858 105,50 z"
       sodipodi:ry="50"
       sodipodi:rx="105"
       sodipodi:cy="1112.8999"
       sodipodi:cx="1053"
       id="path5292"
       style="fill:none;stroke:#3b3b3b;stroke-width:2;stroke-miterlimit:4;stroke-opacity:1;stroke-dasharray:none"
       sodipodi:type="arc" />
    <path
       sodipodi:type="arc"
       style="fill:none;stroke:#3b3b3b;stroke-width:2;stroke-miterlimit:4;stroke-opacity:1;stroke-dasharray:none"
       id="path5294"
       sodipodi:cx="1053"
       sodipodi:cy="1112.8999"
       sodipodi:rx="105"
       sodipodi:ry="50"
       d="m 1158,1112.8999 c 0,27.6142 -47.0101,50 -105,50 -57.9899,0 -105,-22.3858 -105,-50 0,-27.6142 47.0101,-50 105,-50 57.9899,0 105,22.3858 105,50 z"
       transform="matrix(0.7921236,0,0,0.86345955,-389.00686,-121.14684)" />
    <path
       transform="matrix(0.7921236,0,0,0.86345955,-191.01696,-121.14684)"
       d="m 1158,1112.8999 c 0,27.6142 -47.0101,50 -105,50 -57.9899,0 -105,-22.3858 -105,-50 0,-27.6142 47.0101,-50 105,-50 57.9899,0 105,22.3858 105,50 z"
       sodipodi:ry="50"
       sodipodi:rx="105"
       sodipodi:cy="1112.8999"
       sodipodi:cx="1053"
       id="path5296"
       style="fill:none;stroke:#3b3b3b;stroke-width:2;stroke-miterlimit:4;stroke-opacity:1;stroke-dasharray:none"
       sodipodi:type="arc" />
    <path
       sodipodi:type="arc"
       style="fill:none;stroke:#3b3b3b;stroke-width:2;stroke-miterlimit:4;stroke-opacity:1;stroke-dasharray:none"
       id="path5298"
       sodipodi:cx="1053"
       sodipodi:cy="1112.8999"
       sodipodi:rx="105"
       sodipodi:ry="50"
       d="m 1158,1112.8999 c 0,27.6142 -47.0101,50 -105,50 -57.9899,0 -105,-22.3858 -105,-50 0,-27.6142 47.0101,-50 105,-50 57.9899,0 105,22.3858 105,50 z"
       transform="matrix(0.7921236,0,0,0.86345955,-191.01696,-225.79864)" />
    <path
       transform="matrix(0.7921236,0,0,0.86345955,-191.01696,-2.3528973)"
       d="m 1158,1112.8999 c 0,27.6142 -47.0101,50 -105,50 -57.9899,0 -105,-22.3858 -105,-50 0,-27.6142 47.0101,-50 105,-50 57.9899,0 105,22.3858 105,50 z"
       sodipodi:ry="50"
       sodipodi:rx="105"
       sodipodi:cy="1112.8999"
       sodipodi:cx="1053"
       id="path5300"
       style="fill:none;stroke:#3b3b3b;stroke-width:2;stroke-miterlimit:4;stroke-opacity:1;stroke-dasharray:none"
       sodipodi:type="arc" />
    <path
       sodipodi:type="arc"
       style="fill:none;stroke:#3b3b3b;stroke-width:2;stroke-miterlimit:4;stroke-opacity:1;stroke-dasharray:none"
       id="path5302"
       sodipodi:cx="1053"
       sodipodi:cy="1112.8999"
       sodipodi:rx="105"
       sodipodi:ry="50"
       d="m 1158,1112.8999 c 0,27.6142 -47.0101,50 -105,50 -57.9899,0 -105,-22.3858 -105,-50 0,-27.6142 47.0101,-50 105,-50 57.9899,0 105,22.3858 105,50 z"
       transform="matrix(0.7921236,0,0,0.86345955,4.1445115,-2.3528973)" />
    <path
       transform="matrix(0.7921236,0,0,0.86345955,4.1445115,-109.83313)"
       d="m 1158,1112.8999 c 0,27.6142 -47.0101,50 -105,50 -57.9899,0 -105,-22.3858 -105,-50 0,-27.6142 47.0101,-50 105,-50 57.9899,0 105,22.3858 105,50 z"
       sodipodi:ry="50"
       sodipodi:rx="105"
       sodipodi:cy="1112.8999"
       sodipodi:cx="1053"
       id="path5304"
       style="fill:none;stroke:#3b3b3b;stroke-width:2;stroke-miterlimit:4;stroke-opacity:1;stroke-dasharray:none"
       sodipodi:type="arc" />
    <path
       sodipodi:type="arc"
       style="fill:none;stroke:#3b3b3b;stroke-width:2;stroke-miterlimit:4;stroke-opacity:1;stroke-dasharray:none"
       id="path5306"
       sodipodi:cx="1053"
       sodipodi:cy="1112.8999"
       sodipodi:rx="105"
       sodipodi:ry="50"
       d="m 1158,1112.8999 c 0,27.6142 -47.0101,50 -105,50 -57.9899,0 -105,-22.3858 -105,-50 0,-27.6142 47.0101,-50 105,-50 57.9899,0 105,22.3858 105,50 z"
       transform="matrix(0.7921236,0,0,0.86345955,199.30598,-109.83313)" />
    <path
       transform="matrix(0.7921236,0,0,0.86345955,199.30598,-217.31336)"
       d="m 1158,1112.8999 c 0,27.6142 -47.0101,50 -105,50 -57.9899,0 -105,-22.3858 -105,-50 0,-27.6142 47.0101,-50 105,-50 57.9899,0 105,22.3858 105,50 z"
       sodipodi:ry="50"
       sodipodi:rx="105"
       sodipodi:cy="1112.8999"
       sodipodi:cx="1053"
       id="path5308"
       style="fill:none;stroke:#3b3b3b;stroke-width:2;stroke-miterlimit:4;stroke-opacity:1;stroke-dasharray:none"
       sodipodi:type="arc" />
    <path
       sodipodi:type="arc"
       style="fill:none;stroke:#3b3b3b;stroke-width:2;stroke-miterlimit:4;stroke-opacity:1;stroke-dasharray:none"
       id="path5310"
       sodipodi:cx="1053"
       sodipodi:cy="1112.8999"
       sodipodi:rx="105"
       sodipodi:ry="50"
       d="m 1158,1112.8999 c 0,27.6142 -47.0101,50 -105,50 -57.9899,0 -105,-22.3858 -105,-50 0,-27.6142 47.0101,-50 105,-50 57.9899,0 105,22.3858 105,50 z"
       transform="matrix(0.7921236,0,0,0.86345955,199.30598,-319.13674)" />
    <path
       transform="matrix(0.7921236,0,0,0.86345955,377.49689,-319.13674)"
       d="m 1158,1112.8999 c 0,27.6142 -47.0101,50 -105,50 -57.9899,0 -105,-22.3858 -105,-50 0,-27.6142 47.0101,-50 105,-50 57.9899,0 105,22.3858 105,50 z"
       sodipodi:ry="50"
       sodipodi:rx="105"
       sodipodi:cy="1112.8999"
       sodipodi:cx="1053"
       id="path5312"
       style="fill:none;stroke:#3b3b3b;stroke-width:2;stroke-miterlimit:4;stroke-opacity:1;stroke-dasharray:none"
       sodipodi:type="arc" />
    <path
       sodipodi:type="arc"
       style="fill:none;stroke:#3b3b3b;stroke-width:2;stroke-miterlimit:4;stroke-opacity:1;stroke-dasharray:none"
       id="path5314"
       sodipodi:cx="1053"
       sodipodi:cy="1112.8999"
       sodipodi:rx="105"
       sodipodi:ry="50"
       d="m 1158,1112.8999 c 0,27.6142 -47.0101,50 -105,50 -57.9899,0 -105,-22.3858 -105,-50 0,-27.6142 47.0101,-50 105,-50 57.9899,0 105,22.3858 105,50 z"
       transform="matrix(0.7921236,0,0,0.86345955,377.49689,-220.14179)" />
    <path
       transform="matrix(0.7921236,0,0,0.86345955,564.17308,-220.14179)"
       d="m 1158,1112.8999 c 0,27.6142 -47.0101,50 -105,50 -57.9899,0 -105,-22.3858 -105,-50 0,-27.6142 47.0101,-50 105,-50 57.9899,0 105,22.3858 105,50 z"
       sodipodi:ry="50"
       sodipodi:rx="105"
       sodipodi:cy="1112.8999"
       sodipodi:cx="1053"
       id="path5316"
       style="fill:none;stroke:#3b3b3b;stroke-width:2;stroke-miterlimit:4;stroke-opacity:1;stroke-dasharray:none"
       sodipodi:type="arc" />
    <path
       sodipodi:type="arc"
       style="fill:none;stroke:#3b3b3b;stroke-width:2;stroke-miterlimit:4;stroke-opacity:1;stroke-dasharray:none"
       id="path5318"
       sodipodi:cx="1053"
       sodipodi:cy="1112.8999"
       sodipodi:rx="105"
       sodipodi:ry="50"
       d="m 1158,1112.8999 c 0,27.6142 -47.0101,50 -105,50 -57.9899,0 -105,-22.3858 -105,-50 0,-27.6142 47.0101,-50 105,-50 57.9899,0 105,22.3858 105,50 z"
       transform="matrix(0.7921236,0,0,0.86345955,564.17308,-319.13674)" />
    <path
       transform="matrix(0.7921236,0,0,0.86345955,564.17308,-440.75911)"
       d="m 1158,1112.8999 c 0,27.6142 -47.0101,50 -105,50 -57.9899,0 -105,-22.3858 -105,-50 0,-27.6142 47.0101,-50 105,-50 57.9899,0 105,22.3858 105,50 z"
       sodipodi:ry="50"
       sodipodi:rx="105"
       sodipodi:cy="1112.8999"
       sodipodi:cx="1053"
       id="path5320"
       style="fill:none;stroke:#3b3b3b;stroke-width:2;stroke-miterlimit:4;stroke-opacity:1;stroke-dasharray:none"
       sodipodi:type="arc" />
    <path
       sodipodi:type="arc"
       style="fill:none;stroke:#3b3b3b;stroke-width:2;stroke-miterlimit:4;stroke-opacity:1;stroke-dasharray:none"
       id="path5322"
       sodipodi:cx="1053"
       sodipodi:cy="1112.8999"
       sodipodi:rx="105"
       sodipodi:ry="50"
       d="m 1158,1112.8999 c 0,27.6142 -47.0101,50 -105,50 -57.9899,0 -105,-22.3858 -105,-50 0,-27.6142 47.0101,-50 105,-50 57.9899,0 105,22.3858 105,50 z"
       transform="matrix(0.7921236,0,0,0.86345955,354.86947,-440.75911)" />
    <path
       transform="matrix(0.7921236,0,0,0.86345955,567.0015,-539.75406)"
       d="m 1158,1112.8999 c 0,27.6142 -47.0101,50 -105,50 -57.9899,0 -105,-22.3858 -105,-50 0,-27.6142 47.0101,-50 105,-50 57.9899,0 105,22.3858 105,50 z"
       sodipodi:ry="50"
       sodipodi:rx="105"
       sodipodi:cy="1112.8999"
       sodipodi:cx="1053"
       id="path5324"
       style="fill:none;stroke:#3b3b3b;stroke-width:2;stroke-miterlimit:4;stroke-opacity:1;stroke-dasharray:none"
       sodipodi:type="arc" />
    <path
       sodipodi:type="arc"
       style="fill:none;stroke:#3b3b3b;stroke-width:2;stroke-miterlimit:4;stroke-opacity:1;stroke-dasharray:none"
       id="path5326"
       sodipodi:cx="1053"
       sodipodi:cy="1112.8999"
       sodipodi:rx="105"
       sodipodi:ry="50"
       d="m 1158,1112.8999 c 0,27.6142 -47.0101,50 -105,50 -57.9899,0 -105,-22.3858 -105,-50 0,-27.6142 47.0101,-50 105,-50 57.9899,0 105,22.3858 105,50 z"
       transform="matrix(0.7921236,0,0,0.86345955,753.67769,-539.75406)" />
    <path
       transform="matrix(0.7921236,0,0,0.86345955,753.67769,-426.61698)"
       d="m 1158,1112.8999 c 0,27.6142 -47.0101,50 -105,50 -57.9899,0 -105,-22.3858 -105,-50 0,-27.6142 47.0101,-50 105,-50 57.9899,0 105,22.3858 105,50 z"
       sodipodi:ry="50"
       sodipodi:rx="105"
       sodipodi:cy="1112.8999"
       sodipodi:cx="1053"
       id="path5328"
       style="fill:none;stroke:#3b3b3b;stroke-width:2;stroke-miterlimit:4;stroke-opacity:1;stroke-dasharray:none"
       sodipodi:type="arc" />
    <path
       sodipodi:type="arc"
       style="fill:none;stroke:#3b3b3b;stroke-width:2;stroke-miterlimit:4;stroke-opacity:1;stroke-dasharray:none"
       id="path5330"
       sodipodi:cx="1053"
       sodipodi:cy="1112.8999"
       sodipodi:rx="105"
       sodipodi:ry="50"
       d="m 1158,1112.8999 c 0,27.6142 -47.0101,50 -105,50 -57.9899,0 -105,-22.3858 -105,-50 0,-27.6142 47.0101,-50 105,-50 57.9899,0 105,22.3858 105,50 z"
       transform="matrix(0.7921236,0,0,0.86345955,753.67769,-316.30832)" />
    <path
       transform="matrix(0.7921236,0,0,0.86345955,943.18231,-316.30832)"
       d="m 1158,1112.8999 c 0,27.6142 -47.0101,50 -105,50 -57.9899,0 -105,-22.3858 -105,-50 0,-27.6142 47.0101,-50 105,-50 57.9899,0 105,22.3858 105,50 z"
       sodipodi:ry="50"
       sodipodi:rx="105"
       sodipodi:cy="1112.8999"
       sodipodi:cx="1053"
       id="path5332"
       style="fill:none;stroke:#3b3b3b;stroke-width:2;stroke-miterlimit:4;stroke-opacity:1;stroke-dasharray:none"
       sodipodi:type="arc" />
    <path
       sodipodi:type="arc"
       style="fill:none;stroke:#3b3b3b;stroke-width:2;stroke-miterlimit:4;stroke-opacity:1;stroke-dasharray:none"
       id="path5334"
       sodipodi:cx="1053"
       sodipodi:cy="1112.8999"
       sodipodi:rx="105"
       sodipodi:ry="50"
       d="m 1158,1112.8999 c 0,27.6142 -47.0101,50 -105,50 -57.9899,0 -105,-22.3858 -105,-50 0,-27.6142 47.0101,-50 105,-50 57.9899,0 105,22.3858 105,50 z"
       transform="matrix(0.7921236,0,0,0.86345955,943.18231,-440.75911)" />
    <path
       transform="matrix(0.7921236,0,0,0.86345955,943.18231,-551.06777)"
       d="m 1158,1112.8999 c 0,27.6142 -47.0101,50 -105,50 -57.9899,0 -105,-22.3858 -105,-50 0,-27.6142 47.0101,-50 105,-50 57.9899,0 105,22.3858 105,50 z"
       sodipodi:ry="50"
       sodipodi:rx="105"
       sodipodi:cy="1112.8999"
       sodipodi:cx="1053"
       id="path5336"
       style="fill:none;stroke:#3b3b3b;stroke-width:2;stroke-miterlimit:4;stroke-opacity:1;stroke-dasharray:none"
       sodipodi:type="arc" />
    <path
       sodipodi:type="arc"
       style="fill:none;stroke:#3b3b3b;stroke-width:2;stroke-miterlimit:4;stroke-opacity:1;stroke-dasharray:none"
       id="path5338"
       sodipodi:cx="1053"
       sodipodi:cy="1112.8999"
       sodipodi:rx="105"
       sodipodi:ry="50"
       d="m 1158,1112.8999 c 0,27.6142 -47.0101,50 -105,50 -57.9899,0 -105,-22.3858 -105,-50 0,-27.6142 47.0101,-50 105,-50 57.9899,0 105,22.3858 105,50 z"
       transform="matrix(0.7921236,0,0,0.86345955,943.18231,-655.71957)" />
    <path
       transform="matrix(0.7921236,0,0,0.86345955,753.67769,-655.71957)"
       d="m 1158,1112.8999 c 0,27.6142 -47.0101,50 -105,50 -57.9899,0 -105,-22.3858 -105,-50 0,-27.6142 47.0101,-50 105,-50 57.9899,0 105,22.3858 105,50 z"
       sodipodi:ry="50"
       sodipodi:rx="105"
       sodipodi:cy="1112.8999"
       sodipodi:cx="1053"
       id="path5340"
       style="fill:none;stroke:#3b3b3b;stroke-width:2;stroke-miterlimit:4;stroke-opacity:1;stroke-dasharray:none"
       sodipodi:type="arc" />
    <path
       transform="matrix(0.7921236,0,0,0.86345955,29.600353,-1024.5135)"
       d="m 1158,1112.8999 c 0,27.6142 -47.0101,50 -105,50 -57.9899,0 -105,-22.3858 -105,-50 0,-27.6142 47.0101,-50 105,-50 57.9899,0 105,22.3858 105,50 z"
       sodipodi:ry="50"
       sodipodi:rx="105"
       sodipodi:cy="1112.8999"
       sodipodi:cx="1053"
       id="path5342"
       style="fill:none;stroke:#3b3b3b;stroke-width:2;stroke-miterlimit:4;stroke-opacity:1;stroke-dasharray:none"
       sodipodi:type="arc" />
    <path
       sodipodi:type="arc"
       style="fill:none;stroke:#3b3b3b;stroke-width:2;stroke-miterlimit:4;stroke-opacity:1;stroke-dasharray:none"
       id="path5344"
       sodipodi:cx="1053"
       sodipodi:cy="1112.8999"
       sodipodi:rx="105"
       sodipodi:ry="50"
       d="m 1158,1112.8999 c 0,27.6142 -47.0101,50 -105,50 -57.9899,0 -105,-22.3858 -105,-50 0,-27.6142 47.0101,-50 105,-50 57.9899,0 105,22.3858 105,50 z"
       transform="matrix(0.7921236,0,0,0.86345955,-168.38955,-1024.5135)" />
    <path
       transform="matrix(0.7921236,0,0,0.86345955,-168.38955,-908.54799)"
       d="m 1158,1112.8999 c 0,27.6142 -47.0101,50 -105,50 -57.9899,0 -105,-22.3858 -105,-50 0,-27.6142 47.0101,-50 105,-50 57.9899,0 105,22.3858 105,50 z"
       sodipodi:ry="50"
       sodipodi:rx="105"
       sodipodi:cy="1112.8999"
       sodipodi:cx="1053"
       id="path5346"
       style="fill:none;stroke:#3b3b3b;stroke-width:2;stroke-miterlimit:4;stroke-opacity:1;stroke-dasharray:none"
       sodipodi:type="arc" />
    <path
       sodipodi:type="arc"
       style="fill:none;stroke:#3b3b3b;stroke-width:2;stroke-miterlimit:4;stroke-opacity:1;stroke-dasharray:none"
       id="path5348"
       sodipodi:cx="1053"
       sodipodi:cy="1112.8999"
       sodipodi:rx="105"
       sodipodi:ry="50"
       d="m 1158,1112.8999 c 0,27.6142 -47.0101,50 -105,50 -57.9899,0 -105,-22.3858 -105,-50 0,-27.6142 47.0101,-50 105,-50 57.9899,0 105,22.3858 105,50 z"
       transform="matrix(0.7921236,0,0,0.86345955,-377.69316,-908.54799)" />
    <path
       transform="matrix(0.7921236,0,0,0.86345955,-377.69316,-798.23933)"
       d="m 1158,1112.8999 c 0,27.6142 -47.0101,50 -105,50 -57.9899,0 -105,-22.3858 -105,-50 0,-27.6142 47.0101,-50 105,-50 57.9899,0 105,22.3858 105,50 z"
       sodipodi:ry="50"
       sodipodi:rx="105"
       sodipodi:cy="1112.8999"
       sodipodi:cx="1053"
       id="path5350"
       style="fill:none;stroke:#3b3b3b;stroke-width:2;stroke-miterlimit:4;stroke-opacity:1;stroke-dasharray:none"
       sodipodi:type="arc" />
    <path
       sodipodi:type="arc"
       style="fill:none;stroke:#3b3b3b;stroke-width:2;stroke-miterlimit:4;stroke-opacity:1;stroke-dasharray:none"
       id="path5352"
       sodipodi:cx="1053"
       sodipodi:cy="1112.8999"
       sodipodi:rx="105"
       sodipodi:ry="50"
       d="m 1158,1112.8999 c 0,27.6142 -47.0101,50 -105,50 -57.9899,0 -105,-22.3858 -105,-50 0,-27.6142 47.0101,-50 105,-50 57.9899,0 105,22.3858 105,50 z"
       transform="matrix(0.7921236,0,0,0.86345955,-575.68305,-798.23933)" />
    <path
       transform="matrix(0.7921236,0,0,0.86345955,-575.68305,-696.41595)"
       d="m 1158,1112.8999 c 0,27.6142 -47.0101,50 -105,50 -57.9899,0 -105,-22.3858 -105,-50 0,-27.6142 47.0101,-50 105,-50 57.9899,0 105,22.3858 105,50 z"
       sodipodi:ry="50"
       sodipodi:rx="105"
       sodipodi:cy="1112.8999"
       sodipodi:cx="1053"
       id="path5354"
       style="fill:none;stroke:#3b3b3b;stroke-width:2;stroke-miterlimit:4;stroke-opacity:1;stroke-dasharray:none"
       sodipodi:type="arc" />
    <path
       transform="matrix(0.7921236,0,0,0.86345955,943.18231,-757.54295)"
       d="m 1158,1112.8999 c 0,27.6142 -47.0101,50 -105,50 -57.9899,0 -105,-22.3858 -105,-50 0,-27.6142 47.0101,-50 105,-50 57.9899,0 105,22.3858 105,50 z"
       sodipodi:ry="50"
       sodipodi:rx="105"
       sodipodi:cy="1112.8999"
       sodipodi:cx="1053"
       id="path5356"
       style="fill:none;stroke:#3b3b3b;stroke-width:2;stroke-miterlimit:4;stroke-opacity:1;stroke-dasharray:none"
       sodipodi:type="arc" />
    <path
       sodipodi:type="arc"
       style="fill:none;stroke:#3b3b3b;stroke-width:2;stroke-miterlimit:4;stroke-opacity:1;stroke-dasharray:none"
       id="path5358"
       sodipodi:cx="1053"
       sodipodi:cy="1112.8999"
       sodipodi:rx="105"
       sodipodi:ry="50"
       d="m 1158,1112.8999 c 0,27.6142 -47.0101,50 -105,50 -57.9899,0 -105,-22.3858 -105,-50 0,-27.6142 47.0101,-50 105,-50 57.9899,0 105,22.3858 105,50 z"
       transform="matrix(0.7921236,0,0,0.86345955,943.18231,-867.85161)" />
    <path
       transform="matrix(0.7921236,0,0,0.86345955,425.58015,-1024.5135)"
       d="m 1158,1112.8999 c 0,27.6142 -47.0101,50 -105,50 -57.9899,0 -105,-22.3858 -105,-50 0,-27.6142 47.0101,-50 105,-50 57.9899,0 105,22.3858 105,50 z"
       sodipodi:ry="50"
       sodipodi:rx="105"
       sodipodi:cy="1112.8999"
       sodipodi:cx="1053"
       id="path5360"
       style="fill:none;stroke:#3b3b3b;stroke-width:2;stroke-miterlimit:4;stroke-opacity:1;stroke-dasharray:none"
       sodipodi:type="arc" />
    <path
       sodipodi:type="arc"
       style="fill:none;stroke:#3b3b3b;stroke-width:2;stroke-miterlimit:4;stroke-opacity:1;stroke-dasharray:none"
       id="path5362"
       sodipodi:cx="1053"
       sodipodi:cy="1112.8999"
       sodipodi:rx="105"
       sodipodi:ry="50"
       d="m 1158,1112.8999 c 0,27.6142 -47.0101,50 -105,50 -57.9899,0 -105,-22.3858 -105,-50 0,-27.6142 47.0101,-50 105,-50 57.9899,0 105,22.3858 105,50 z"
       transform="matrix(0.7921236,0,0,0.86345955,629.2269,-1024.5135)" />
    <path
       transform="matrix(0.7921236,0,0,0.86345955,629.2269,-1134.8222)"
       d="m 1158,1112.8999 c 0,27.6142 -47.0101,50 -105,50 -57.9899,0 -105,-22.3858 -105,-50 0,-27.6142 47.0101,-50 105,-50 57.9899,0 105,22.3858 105,50 z"
       sodipodi:ry="50"
       sodipodi:rx="105"
       sodipodi:cy="1112.8999"
       sodipodi:cx="1053"
       id="path5364"
       style="fill:none;stroke:#3b3b3b;stroke-width:2;stroke-miterlimit:4;stroke-opacity:1;stroke-dasharray:none"
       sodipodi:type="arc" />
    <path
       sodipodi:type="arc"
       style="fill:none;stroke:#3b3b3b;stroke-width:2;stroke-miterlimit:4;stroke-opacity:1;stroke-dasharray:none"
       id="path5366"
       sodipodi:cx="1053"
       sodipodi:cy="1112.8999"
       sodipodi:rx="105"
       sodipodi:ry="50"
       d="m 1158,1112.8999 c 0,27.6142 -47.0101,50 -105,50 -57.9899,0 -105,-22.3858 -105,-50 0,-27.6142 47.0101,-50 105,-50 57.9899,0 105,22.3858 105,50 z"
       transform="matrix(0.7921236,0,0,0.86345955,824.38837,-1134.8222)" />
    <path
       transform="matrix(0.7921236,0,0,0.86345955,824.38837,-1256.4446)"
       d="m 1158,1112.8999 c 0,27.6142 -47.0101,50 -105,50 -57.9899,0 -105,-22.3858 -105,-50 0,-27.6142 47.0101,-50 105,-50 57.9899,0 105,22.3858 105,50 z"
       sodipodi:ry="50"
       sodipodi:rx="105"
       sodipodi:cy="1112.8999"
       sodipodi:cx="1053"
       id="path5368"
       style="fill:none;stroke:#3b3b3b;stroke-width:2;stroke-miterlimit:4;stroke-opacity:1;stroke-dasharray:none"
       sodipodi:type="arc" />
    <path
       sodipodi:type="arc"
       style="fill:none;stroke:#3b3b3b;stroke-width:2;stroke-miterlimit:4;stroke-opacity:1;stroke-dasharray:none"
       id="path5370"
       sodipodi:cx="1053"
       sodipodi:cy="1112.8999"
       sodipodi:rx="105"
       sodipodi:ry="50"
       d="m 1158,1112.8999 c 0,27.6142 -47.0101,50 -105,50 -57.9899,0 -105,-22.3858 -105,-50 0,-27.6142 47.0101,-50 105,-50 57.9899,0 105,22.3858 105,50 z"
       transform="matrix(0.7921236,0,0,0.86345955,414.26644,-1256.4446)" />
    <path
       transform="matrix(0.7921236,0,0,0.86345955,414.26644,-1146.1359)"
       d="m 1158,1112.8999 c 0,27.6142 -47.0101,50 -105,50 -57.9899,0 -105,-22.3858 -105,-50 0,-27.6142 47.0101,-50 105,-50 57.9899,0 105,22.3858 105,50 z"
       sodipodi:ry="50"
       sodipodi:rx="105"
       sodipodi:cy="1112.8999"
       sodipodi:cx="1053"
       id="path5372"
       style="fill:none;stroke:#3b3b3b;stroke-width:2;stroke-miterlimit:4;stroke-opacity:1;stroke-dasharray:none"
       sodipodi:type="arc" />
    <path
       transform="matrix(0.7921236,0,0,0.86345955,623.57005,-1256.4446)"
       d="m 1158,1112.8999 c 0,27.6142 -47.0101,50 -105,50 -57.9899,0 -105,-22.3858 -105,-50 0,-27.6142 47.0101,-50 105,-50 57.9899,0 105,22.3858 105,50 z"
       sodipodi:ry="50"
       sodipodi:rx="105"
       sodipodi:cy="1112.8999"
       sodipodi:cx="1053"
       id="path5374"
       style="fill:none;stroke:#3b3b3b;stroke-width:2;stroke-miterlimit:4;stroke-opacity:1;stroke-dasharray:none"
       sodipodi:type="arc" />
    <path
       sodipodi:type="arc"
       style="fill:none;stroke:#3b3b3b;stroke-width:2;stroke-miterlimit:4;stroke-opacity:1;stroke-dasharray:none"
       id="path5376"
       sodipodi:cx="1053"
       sodipodi:cy="1112.8999"
       sodipodi:rx="105"
       sodipodi:ry="50"
       d="m 1158,1112.8999 c 0,27.6142 -47.0101,50 -105,50 -57.9899,0 -105,-22.3858 -105,-50 0,-27.6142 47.0101,-50 105,-50 57.9899,0 105,22.3858 105,50 z"
       transform="matrix(0.7921236,0,0,0.86345955,824.38837,-1363.9248)" />
    <path
       sodipodi:type="arc"
       style="fill:none;stroke:#3b3b3b;stroke-width:2;stroke-miterlimit:4;stroke-opacity:1;stroke-dasharray:none"
       id="path5378"
       sodipodi:cx="1053"
       sodipodi:cy="1112.8999"
       sodipodi:rx="105"
       sodipodi:ry="50"
       d="m 1158,1112.8999 c 0,27.6142 -47.0101,50 -105,50 -57.9899,0 -105,-22.3858 -105,-50 0,-27.6142 47.0101,-50 105,-50 57.9899,0 105,22.3858 105,50 z"
       transform="matrix(0.7921236,0,0,0.86345955,1030.8635,-1256.4446)" />
    <path
       sodipodi:type="arc"
       style="fill:none;stroke:#3b3b3b;stroke-width:2;stroke-miterlimit:4;stroke-opacity:1;stroke-dasharray:none"
       id="path5380"
       sodipodi:cx="1053"
       sodipodi:cy="1112.8999"
       sodipodi:rx="105"
       sodipodi:ry="50"
       d="m 1158,1112.8999 c 0,27.6142 -47.0101,50 -105,50 -57.9899,0 -105,-22.3858 -105,-50 0,-27.6142 47.0101,-50 105,-50 57.9899,0 105,22.3858 105,50 z"
       transform="matrix(0.7921236,0,0,0.86345955,1121.3732,-551.06777)" />
    <path
       transform="matrix(0.7921236,0,0,0.86345955,1121.3732,-667.03328)"
       d="m 1158,1112.8999 c 0,27.6142 -47.0101,50 -105,50 -57.9899,0 -105,-22.3858 -105,-50 0,-27.6142 47.0101,-50 105,-50 57.9899,0 105,22.3858 105,50 z"
       sodipodi:ry="50"
       sodipodi:rx="105"
       sodipodi:cy="1112.8999"
       sodipodi:cx="1053"
       id="path5382"
       style="fill:none;stroke:#3b3b3b;stroke-width:2;stroke-miterlimit:4;stroke-opacity:1;stroke-dasharray:none"
       sodipodi:type="arc" />
    <path
       sodipodi:type="arc"
       style="fill:none;stroke:#3b3b3b;stroke-width:2;stroke-miterlimit:4;stroke-opacity:1;stroke-dasharray:none"
       id="path5384"
       sodipodi:cx="1053"
       sodipodi:cy="1112.8999"
       sodipodi:rx="105"
       sodipodi:ry="50"
       d="m 1158,1112.8999 c 0,27.6142 -47.0101,50 -105,50 -57.9899,0 -105,-22.3858 -105,-50 0,-27.6142 47.0101,-50 105,-50 57.9899,0 105,22.3858 105,50 z"
       transform="matrix(0.7921236,0,0,0.86345955,1121.3732,-768.85666)" />
    <path
       transform="matrix(0.7921236,0,0,0.86345955,1036.5204,-1363.9248)"
       d="m 1158,1112.8999 c 0,27.6142 -47.0101,50 -105,50 -57.9899,0 -105,-22.3858 -105,-50 0,-27.6142 47.0101,-50 105,-50 57.9899,0 105,22.3858 105,50 z"
       sodipodi:ry="50"
       sodipodi:rx="105"
       sodipodi:cy="1112.8999"
       sodipodi:cx="1053"
       id="path5386"
       style="fill:none;stroke:#3b3b3b;stroke-width:2;stroke-miterlimit:4;stroke-opacity:1;stroke-dasharray:none"
       sodipodi:type="arc" />
    <path
       sodipodi:type="arc"
       style="fill:none;stroke:#3b3b3b;stroke-width:2;stroke-miterlimit:4;stroke-opacity:1;stroke-dasharray:none"
       id="path5388"
       sodipodi:cx="1053"
       sodipodi:cy="1112.8999"
       sodipodi:rx="105"
       sodipodi:ry="50"
       d="m 1158,1112.8999 c 0,27.6142 -47.0101,50 -105,50 -57.9899,0 -105,-22.3858 -105,-50 0,-27.6142 47.0101,-50 105,-50 57.9899,0 105,22.3858 105,50 z"
       transform="matrix(0.7921236,0,0,0.86345955,623.57005,-1369.5817)" />
    <path
       transform="matrix(0.7921236,0,0,0.86345955,414.26644,-1380.8954)"
       d="m 1158,1112.8999 c 0,27.6142 -47.0101,50 -105,50 -57.9899,0 -105,-22.3858 -105,-50 0,-27.6142 47.0101,-50 105,-50 57.9899,0 105,22.3858 105,50 z"
       sodipodi:ry="50"
       sodipodi:rx="105"
       sodipodi:cy="1112.8999"
       sodipodi:cx="1053"
       id="path5390"
       style="fill:none;stroke:#3b3b3b;stroke-width:2;stroke-miterlimit:4;stroke-opacity:1;stroke-dasharray:none"
       sodipodi:type="arc" />
    <path
       transform="matrix(0.7921236,0,0,0.86345955,623.57005,-1482.7188)"
       d="m 1158,1112.8999 c 0,27.6142 -47.0101,50 -105,50 -57.9899,0 -105,-22.3858 -105,-50 0,-27.6142 47.0101,-50 105,-50 57.9899,0 105,22.3858 105,50 z"
       sodipodi:ry="50"
       sodipodi:rx="105"
       sodipodi:cy="1112.8999"
       sodipodi:cx="1053"
       id="path5392"
       style="fill:none;stroke:#3b3b3b;stroke-width:2;stroke-miterlimit:4;stroke-opacity:1;stroke-dasharray:none"
       sodipodi:type="arc" />
    <path
       transform="matrix(0.7921236,0,0,0.86345955,824.38837,-1474.2335)"
       d="m 1158,1112.8999 c 0,27.6142 -47.0101,50 -105,50 -57.9899,0 -105,-22.3858 -105,-50 0,-27.6142 47.0101,-50 105,-50 57.9899,0 105,22.3858 105,50 z"
       sodipodi:ry="50"
       sodipodi:rx="105"
       sodipodi:cy="1112.8999"
       sodipodi:cx="1053"
       id="path5394"
       style="fill:none;stroke:#3b3b3b;stroke-width:2;stroke-miterlimit:4;stroke-opacity:1;stroke-dasharray:none"
       sodipodi:type="arc" />
    <path
       sodipodi:type="arc"
       style="fill:none;stroke:#3b3b3b;stroke-width:2;stroke-miterlimit:4;stroke-opacity:1;stroke-dasharray:none"
       id="path5396"
       sodipodi:cx="1053"
       sodipodi:cy="1112.8999"
       sodipodi:rx="105"
       sodipodi:ry="50"
       d="m 1158,1112.8999 c 0,27.6142 -47.0101,50 -105,50 -57.9899,0 -105,-22.3858 -105,-50 0,-27.6142 47.0101,-50 105,-50 57.9899,0 105,22.3858 105,50 z"
       transform="matrix(0.7921236,0,0,0.86345955,1030.8635,-1474.2335)" />
    <path
       transform="matrix(0.7921236,0,0,0.86345955,1030.8635,-1595.8559)"
       d="m 1158,1112.8999 c 0,27.6142 -47.0101,50 -105,50 -57.9899,0 -105,-22.3858 -105,-50 0,-27.6142 47.0101,-50 105,-50 57.9899,0 105,22.3858 105,50 z"
       sodipodi:ry="50"
       sodipodi:rx="105"
       sodipodi:cy="1112.8999"
       sodipodi:cx="1053"
       id="path5398"
       style="fill:none;stroke:#3b3b3b;stroke-width:2;stroke-miterlimit:4;stroke-opacity:1;stroke-dasharray:none"
       sodipodi:type="arc" />
    <path
       sodipodi:type="arc"
       style="fill:none;stroke:#3b3b3b;stroke-width:2;stroke-miterlimit:4;stroke-opacity:1;stroke-dasharray:none"
       id="path5400"
       sodipodi:cx="1053"
       sodipodi:cy="1112.8999"
       sodipodi:rx="105"
       sodipodi:ry="50"
       d="m 1158,1112.8999 c 0,27.6142 -47.0101,50 -105,50 -57.9899,0 -105,-22.3858 -105,-50 0,-27.6142 47.0101,-50 105,-50 57.9899,0 105,22.3858 105,50 z"
       transform="matrix(0.7921236,0,0,0.86345955,824.38837,-1593.0274)" />
    <path
       transform="matrix(0.7921236,0,0,0.86345955,824.38837,-1711.8213)"
       d="m 1158,1112.8999 c 0,27.6142 -47.0101,50 -105,50 -57.9899,0 -105,-22.3858 -105,-50 0,-27.6142 47.0101,-50 105,-50 57.9899,0 105,22.3858 105,50 z"
       sodipodi:ry="50"
       sodipodi:rx="105"
       sodipodi:cy="1112.8999"
       sodipodi:cx="1053"
       id="path5402"
       style="fill:none;stroke:#3b3b3b;stroke-width:2;stroke-miterlimit:4;stroke-opacity:1;stroke-dasharray:none"
       sodipodi:type="arc" />
    <path
       sodipodi:type="arc"
       style="fill:none;stroke:#3b3b3b;stroke-width:2;stroke-miterlimit:4;stroke-opacity:1;stroke-dasharray:none"
       id="path5404"
       sodipodi:cx="1053"
       sodipodi:cy="1112.8999"
       sodipodi:rx="105"
       sodipodi:ry="50"
       d="m 1158,1112.8999 c 0,27.6142 -47.0101,50 -105,50 -57.9899,0 -105,-22.3858 -105,-50 0,-27.6142 47.0101,-50 105,-50 57.9899,0 105,22.3858 105,50 z"
       transform="matrix(0.7921236,0,0,0.86345955,1030.8635,-1717.4783)" />
    <path
       sodipodi:type="arc"
       style="fill:none;stroke:#3b3b3b;stroke-width:2;stroke-miterlimit:4;stroke-opacity:1;stroke-dasharray:none"
       id="path5406"
       sodipodi:cx="1053"
       sodipodi:cy="1112.8999"
       sodipodi:rx="105"
       sodipodi:ry="50"
       d="m 1158,1112.8999 c 0,27.6142 -47.0101,50 -105,50 -57.9899,0 -105,-22.3858 -105,-50 0,-27.6142 47.0101,-50 105,-50 57.9899,0 105,22.3858 105,50 z"
       transform="matrix(0.7921236,0,0,0.86345955,824.38837,-1839.1005)" />
    <path
       sodipodi:type="arc"
       style="fill:none;stroke:#3b3b3b;stroke-width:2;stroke-miterlimit:4;stroke-opacity:1;stroke-dasharray:none"
       id="path5408"
       sodipodi:cx="1053"
       sodipodi:cy="1112.8999"
       sodipodi:rx="105"
       sodipodi:ry="50"
       d="m 1158,1112.8999 c 0,27.6142 -47.0101,50 -105,50 -57.9899,0 -105,-22.3858 -105,-50 0,-27.6142 47.0101,-50 105,-50 57.9899,0 105,22.3858 105,50 z"
       transform="matrix(0.7921236,0,0,0.86345955,623.57005,-1601.5127)" />
    <path
       sodipodi:type="arc"
       style="fill:none;stroke:#3b3b3b;stroke-width:2;stroke-miterlimit:4;stroke-opacity:1;stroke-dasharray:none"
       id="path5410"
       sodipodi:cx="1053"
       sodipodi:cy="1112.8999"
       sodipodi:rx="105"
       sodipodi:ry="50"
       d="m 1158,1112.8999 c 0,27.6142 -47.0101,50 -105,50 -57.9899,0 -105,-22.3858 -105,-50 0,-27.6142 47.0101,-50 105,-50 57.9899,0 105,22.3858 105,50 z"
       transform="matrix(0.7921236,0,0,0.86345955,632.05533,-1711.8213)" />
    <path
       transform="matrix(0.7921236,0,0,0.86345955,632.05533,-1839.1005)"
       d="m 1158,1112.8999 c 0,27.6142 -47.0101,50 -105,50 -57.9899,0 -105,-22.3858 -105,-50 0,-27.6142 47.0101,-50 105,-50 57.9899,0 105,22.3858 105,50 z"
       sodipodi:ry="50"
       sodipodi:rx="105"
       sodipodi:cy="1112.8999"
       sodipodi:cx="1053"
       id="path5412"
       style="fill:none;stroke:#3b3b3b;stroke-width:2;stroke-miterlimit:4;stroke-opacity:1;stroke-dasharray:none"
       sodipodi:type="arc" />
    <path
       sodipodi:type="arc"
       style="fill:none;stroke:#3b3b3b;stroke-width:2;stroke-miterlimit:4;stroke-opacity:1;stroke-dasharray:none"
       id="path5414"
       sodipodi:cx="1053"
       sodipodi:cy="1112.8999"
       sodipodi:rx="105"
       sodipodi:ry="50"
       d="m 1158,1112.8999 c 0,27.6142 -47.0101,50 -105,50 -57.9899,0 -105,-22.3858 -105,-50 0,-27.6142 47.0101,-50 105,-50 57.9899,0 105,22.3858 105,50 z"
       transform="matrix(0.7921236,0,0,0.86345955,632.05533,-1960.7229)" />
    <path
       transform="matrix(0.7921236,0,0,0.86345955,442.55071,-1960.7229)"
       d="m 1158,1112.8999 c 0,27.6142 -47.0101,50 -105,50 -57.9899,0 -105,-22.3858 -105,-50 0,-27.6142 47.0101,-50 105,-50 57.9899,0 105,22.3858 105,50 z"
       sodipodi:ry="50"
       sodipodi:rx="105"
       sodipodi:cy="1112.8999"
       sodipodi:cx="1053"
       id="path5416"
       style="fill:none;stroke:#3b3b3b;stroke-width:2;stroke-miterlimit:4;stroke-opacity:1;stroke-dasharray:none"
       sodipodi:type="arc" />
    <path
       sodipodi:type="arc"
       style="fill:none;stroke:#3b3b3b;stroke-width:2;stroke-miterlimit:4;stroke-opacity:1;stroke-dasharray:none"
       id="path5418"
       sodipodi:cx="1053"
       sodipodi:cy="1112.8999"
       sodipodi:rx="105"
       sodipodi:ry="50"
       d="m 1158,1112.8999 c 0,27.6142 -47.0101,50 -105,50 -57.9899,0 -105,-22.3858 -105,-50 0,-27.6142 47.0101,-50 105,-50 57.9899,0 105,22.3858 105,50 z"
       transform="matrix(0.7921236,0,0,0.86345955,442.55071,-1850.4142)" />
    <path
       transform="matrix(0.7921236,0,0,0.86345955,244.56081,-1850.4142)"
       d="m 1158,1112.8999 c 0,27.6142 -47.0101,50 -105,50 -57.9899,0 -105,-22.3858 -105,-50 0,-27.6142 47.0101,-50 105,-50 57.9899,0 105,22.3858 105,50 z"
       sodipodi:ry="50"
       sodipodi:rx="105"
       sodipodi:cy="1112.8999"
       sodipodi:cx="1053"
       id="path5420"
       style="fill:none;stroke:#3b3b3b;stroke-width:2;stroke-miterlimit:4;stroke-opacity:1;stroke-dasharray:none"
       sodipodi:type="arc" />
    <path
       sodipodi:type="arc"
       style="fill:none;stroke:#3b3b3b;stroke-width:2;stroke-miterlimit:4;stroke-opacity:1;stroke-dasharray:none"
       id="path5422"
       sodipodi:cx="1053"
       sodipodi:cy="1112.8999"
       sodipodi:rx="105"
       sodipodi:ry="50"
       d="m 1158,1112.8999 c 0,27.6142 -47.0101,50 -105,50 -57.9899,0 -105,-22.3858 -105,-50 0,-27.6142 47.0101,-50 105,-50 57.9899,0 105,22.3858 105,50 z"
       transform="matrix(0.7921236,0,0,0.86345955,244.56081,-1957.8944)" />
    <path
       sodipodi:type="arc"
       style="fill:none;stroke:#3b3b3b;stroke-width:2;stroke-miterlimit:4;stroke-opacity:1;stroke-dasharray:none"
       id="path5424"
       sodipodi:cx="1053"
       sodipodi:cy="1112.8999"
       sodipodi:rx="105"
       sodipodi:ry="50"
       d="m 1158,1112.8999 c 0,27.6142 -47.0101,50 -105,50 -57.9899,0 -105,-22.3858 -105,-50 0,-27.6142 47.0101,-50 105,-50 57.9899,0 105,22.3858 105,50 z"
       transform="matrix(0.7921236,0,0,0.86345955,244.56081,-1751.4193)" />
    <path
       transform="matrix(0.7921236,0,0,0.86345955,49.399339,-1751.4193)"
       d="m 1158,1112.8999 c 0,27.6142 -47.0101,50 -105,50 -57.9899,0 -105,-22.3858 -105,-50 0,-27.6142 47.0101,-50 105,-50 57.9899,0 105,22.3858 105,50 z"
       sodipodi:ry="50"
       sodipodi:rx="105"
       sodipodi:cy="1112.8999"
       sodipodi:cx="1053"
       id="path5426"
       style="fill:none;stroke:#3b3b3b;stroke-width:2;stroke-miterlimit:4;stroke-opacity:1;stroke-dasharray:none"
       sodipodi:type="arc" />
    <path
       sodipodi:type="arc"
       style="fill:none;stroke:#3b3b3b;stroke-width:2;stroke-miterlimit:4;stroke-opacity:1;stroke-dasharray:none"
       id="path5428"
       sodipodi:cx="1053"
       sodipodi:cy="1112.8999"
       sodipodi:rx="105"
       sodipodi:ry="50"
       d="m 1158,1112.8999 c 0,27.6142 -47.0101,50 -105,50 -57.9899,0 -105,-22.3858 -105,-50 0,-27.6142 47.0101,-50 105,-50 57.9899,0 105,22.3858 105,50 z"
       transform="matrix(0.7921236,0,0,0.86345955,49.399339,-1847.5858)" />
    <path
       transform="matrix(0.7921236,0,0,0.86345955,49.399339,-1952.2376)"
       d="m 1158,1112.8999 c 0,27.6142 -47.0101,50 -105,50 -57.9899,0 -105,-22.3858 -105,-50 0,-27.6142 47.0101,-50 105,-50 57.9899,0 105,22.3858 105,50 z"
       sodipodi:ry="50"
       sodipodi:rx="105"
       sodipodi:cy="1112.8999"
       sodipodi:cx="1053"
       id="path5430"
       style="fill:none;stroke:#3b3b3b;stroke-width:2;stroke-miterlimit:4;stroke-opacity:1;stroke-dasharray:none"
       sodipodi:type="arc" />
    <path
       sodipodi:type="arc"
       style="fill:none;stroke:#3b3b3b;stroke-width:2;stroke-miterlimit:4;stroke-opacity:1;stroke-dasharray:none"
       id="path5432"
       sodipodi:cx="1053"
       sodipodi:cy="1112.8999"
       sodipodi:rx="105"
       sodipodi:ry="50"
       d="m 1158,1112.8999 c 0,27.6142 -47.0101,50 -105,50 -57.9899,0 -105,-22.3858 -105,-50 0,-27.6142 47.0101,-50 105,-50 57.9899,0 105,22.3858 105,50 z"
       transform="matrix(0.7921236,0,0,0.86345955,-140.10528,-1751.4193)" />
    <path
       transform="matrix(0.7921236,0,0,0.86345955,-140.10528,-1646.7675)"
       d="m 1158,1112.8999 c 0,27.6142 -47.0101,50 -105,50 -57.9899,0 -105,-22.3858 -105,-50 0,-27.6142 47.0101,-50 105,-50 57.9899,0 105,22.3858 105,50 z"
       sodipodi:ry="50"
       sodipodi:rx="105"
       sodipodi:cy="1112.8999"
       sodipodi:cx="1053"
       id="path5434"
       style="fill:none;stroke:#3b3b3b;stroke-width:2;stroke-miterlimit:4;stroke-opacity:1;stroke-dasharray:none"
       sodipodi:type="arc" />
    <path
       sodipodi:type="arc"
       style="fill:none;stroke:#3b3b3b;stroke-width:2;stroke-miterlimit:4;stroke-opacity:1;stroke-dasharray:none"
       id="path5436"
       sodipodi:cx="1053"
       sodipodi:cy="1112.8999"
       sodipodi:rx="105"
       sodipodi:ry="50"
       d="m 1158,1112.8999 c 0,27.6142 -47.0101,50 -105,50 -57.9899,0 -105,-22.3858 -105,-50 0,-27.6142 47.0101,-50 105,-50 57.9899,0 105,22.3858 105,50 z"
       transform="matrix(0.7921236,0,0,0.86345955,-140.10528,-1850.4143)" />
    <path
       transform="matrix(0.7921236,0,0,0.86345955,-140.10528,-1957.8945)"
       d="m 1158,1112.8999 c 0,27.6142 -47.0101,50 -105,50 -57.9899,0 -105,-22.3858 -105,-50 0,-27.6142 47.0101,-50 105,-50 57.9899,0 105,22.3858 105,50 z"
       sodipodi:ry="50"
       sodipodi:rx="105"
       sodipodi:cy="1112.8999"
       sodipodi:cx="1053"
       id="path5438"
       style="fill:none;stroke:#3b3b3b;stroke-width:2;stroke-miterlimit:4;stroke-opacity:1;stroke-dasharray:none"
       sodipodi:type="arc" />
    <path
       sodipodi:type="arc"
       style="fill:none;stroke:#3b3b3b;stroke-width:2;stroke-miterlimit:4;stroke-opacity:1;stroke-dasharray:none"
       id="path5440"
       sodipodi:cx="1053"
       sodipodi:cy="1112.8999"
       sodipodi:rx="105"
       sodipodi:ry="50"
       d="m 1158,1112.8999 c 0,27.6142 -47.0101,50 -105,50 -57.9899,0 -105,-22.3858 -105,-50 0,-27.6142 47.0101,-50 105,-50 57.9899,0 105,22.3858 105,50 z"
       transform="matrix(0.7921236,0,0,0.86345955,-323.95304,-1646.7675)" />
    <path
       transform="matrix(0.7921236,0,0,0.86345955,-323.95304,-1536.4588)"
       d="m 1158,1112.8999 c 0,27.6142 -47.0101,50 -105,50 -57.9899,0 -105,-22.3858 -105,-50 0,-27.6142 47.0101,-50 105,-50 57.9899,0 105,22.3858 105,50 z"
       sodipodi:ry="50"
       sodipodi:rx="105"
       sodipodi:cy="1112.8999"
       sodipodi:cx="1053"
       id="path5442"
       style="fill:none;stroke:#3b3b3b;stroke-width:2;stroke-miterlimit:4;stroke-opacity:1;stroke-dasharray:none"
       sodipodi:type="arc" />
    <path
       sodipodi:type="arc"
       style="fill:none;stroke:#3b3b3b;stroke-width:2;stroke-miterlimit:4;stroke-opacity:1;stroke-dasharray:none"
       id="path5444"
       sodipodi:cx="1053"
       sodipodi:cy="1112.8999"
       sodipodi:rx="105"
       sodipodi:ry="50"
       d="m 1158,1112.8999 c 0,27.6142 -47.0101,50 -105,50 -57.9899,0 -105,-22.3858 -105,-50 0,-27.6142 47.0101,-50 105,-50 57.9899,0 105,22.3858 105,50 z"
       transform="matrix(0.7921236,0,0,0.86345955,-323.95304,-1858.8995)" />
    <path
       transform="matrix(0.7921236,0,0,0.86345955,-323.95304,-1754.2477)"
       d="m 1158,1112.8999 c 0,27.6142 -47.0101,50 -105,50 -57.9899,0 -105,-22.3858 -105,-50 0,-27.6142 47.0101,-50 105,-50 57.9899,0 105,22.3858 105,50 z"
       sodipodi:ry="50"
       sodipodi:rx="105"
       sodipodi:cy="1112.8999"
       sodipodi:cx="1053"
       id="path5446"
       style="fill:none;stroke:#3b3b3b;stroke-width:2;stroke-miterlimit:4;stroke-opacity:1;stroke-dasharray:none"
       sodipodi:type="arc" />
    <path
       transform="matrix(0.7921236,0,0,0.86345955,-502.14395,-1858.8995)"
       d="m 1158,1112.8999 c 0,27.6142 -47.0101,50 -105,50 -57.9899,0 -105,-22.3858 -105,-50 0,-27.6142 47.0101,-50 105,-50 57.9899,0 105,22.3858 105,50 z"
       sodipodi:ry="50"
       sodipodi:rx="105"
       sodipodi:cy="1112.8999"
       sodipodi:cx="1053"
       id="path5448"
       style="fill:none;stroke:#3b3b3b;stroke-width:2;stroke-miterlimit:4;stroke-opacity:1;stroke-dasharray:none"
       sodipodi:type="arc" />
    <path
       sodipodi:type="arc"
       style="fill:none;stroke:#3b3b3b;stroke-width:2;stroke-miterlimit:4;stroke-opacity:1;stroke-dasharray:none"
       id="path5450"
       sodipodi:cx="1053"
       sodipodi:cy="1112.8999"
       sodipodi:rx="105"
       sodipodi:ry="50"
       d="m 1158,1112.8999 c 0,27.6142 -47.0101,50 -105,50 -57.9899,0 -105,-22.3858 -105,-50 0,-27.6142 47.0101,-50 105,-50 57.9899,0 105,22.3858 105,50 z"
       transform="matrix(0.7921236,0,0,0.86345955,-502.14395,-1757.0761)" />
    <path
       transform="matrix(0.7921236,0,0,0.86345955,-680.33486,-1757.0761)"
       d="m 1158,1112.8999 c 0,27.6142 -47.0101,50 -105,50 -57.9899,0 -105,-22.3858 -105,-50 0,-27.6142 47.0101,-50 105,-50 57.9899,0 105,22.3858 105,50 z"
       sodipodi:ry="50"
       sodipodi:rx="105"
       sodipodi:cy="1112.8999"
       sodipodi:cx="1053"
       id="path5452"
       style="fill:none;stroke:#3b3b3b;stroke-width:2;stroke-miterlimit:4;stroke-opacity:1;stroke-dasharray:none"
       sodipodi:type="arc" />
    <path
       sodipodi:type="arc"
       style="fill:none;stroke:#3b3b3b;stroke-width:2;stroke-miterlimit:4;stroke-opacity:1;stroke-dasharray:none"
       id="path5454"
       sodipodi:cx="1053"
       sodipodi:cy="1112.8999"
       sodipodi:rx="105"
       sodipodi:ry="50"
       d="m 1158,1112.8999 c 0,27.6142 -47.0101,50 -105,50 -57.9899,0 -105,-22.3858 -105,-50 0,-27.6142 47.0101,-50 105,-50 57.9899,0 105,22.3858 105,50 z"
       transform="matrix(0.7921236,0,0,0.86345955,-680.33486,-1655.2527)" />
    <path
       transform="matrix(0.7921236,0,0,0.86345955,-499.31552,-1655.2527)"
       d="m 1158,1112.8999 c 0,27.6142 -47.0101,50 -105,50 -57.9899,0 -105,-22.3858 -105,-50 0,-27.6142 47.0101,-50 105,-50 57.9899,0 105,22.3858 105,50 z"
       sodipodi:ry="50"
       sodipodi:rx="105"
       sodipodi:cy="1112.8999"
       sodipodi:cx="1053"
       id="path5456"
       style="fill:none;stroke:#3b3b3b;stroke-width:2;stroke-miterlimit:4;stroke-opacity:1;stroke-dasharray:none"
       sodipodi:type="arc" />
    <path
       sodipodi:type="arc"
       style="fill:none;stroke:#3b3b3b;stroke-width:2;stroke-miterlimit:4;stroke-opacity:1;stroke-dasharray:none"
       id="path5458"
       sodipodi:cx="1053"
       sodipodi:cy="1112.8999"
       sodipodi:rx="105"
       sodipodi:ry="50"
       d="m 1158,1112.8999 c 0,27.6142 -47.0101,50 -105,50 -57.9899,0 -105,-22.3858 -105,-50 0,-27.6142 47.0101,-50 105,-50 57.9899,0 105,22.3858 105,50 z"
       transform="matrix(0.7921236,0,0,0.86345955,-499.31552,-1547.7725)" />
    <path
       transform="matrix(0.7921236,0,0,0.86345955,-677.50643,-1547.7725)"
       d="m 1158,1112.8999 c 0,27.6142 -47.0101,50 -105,50 -57.9899,0 -105,-22.3858 -105,-50 0,-27.6142 47.0101,-50 105,-50 57.9899,0 105,22.3858 105,50 z"
       sodipodi:ry="50"
       sodipodi:rx="105"
       sodipodi:cy="1112.8999"
       sodipodi:cx="1053"
       id="path5460"
       style="fill:none;stroke:#3b3b3b;stroke-width:2;stroke-miterlimit:4;stroke-opacity:1;stroke-dasharray:none"
       sodipodi:type="arc" />
    <path
       sodipodi:type="arc"
       style="fill:none;stroke:#3b3b3b;stroke-width:2;stroke-miterlimit:4;stroke-opacity:1;stroke-dasharray:none"
       id="path5462"
       sodipodi:cx="1053"
       sodipodi:cy="1112.8999"
       sodipodi:rx="105"
       sodipodi:ry="50"
       d="m 1158,1112.8999 c 0,27.6142 -47.0101,50 -105,50 -57.9899,0 -105,-22.3858 -105,-50 0,-27.6142 47.0101,-50 105,-50 57.9899,0 105,22.3858 105,50 z"
       transform="matrix(0.7921236,0,0,0.86345955,-677.50643,-1440.2923)" />
    <path
       transform="matrix(0.7921236,0,0,0.86345955,-499.31552,-1440.2923)"
       d="m 1158,1112.8999 c 0,27.6142 -47.0101,50 -105,50 -57.9899,0 -105,-22.3858 -105,-50 0,-27.6142 47.0101,-50 105,-50 57.9899,0 105,22.3858 105,50 z"
       sodipodi:ry="50"
       sodipodi:rx="105"
       sodipodi:cy="1112.8999"
       sodipodi:cx="1053"
       id="path5464"
       style="fill:none;stroke:#3b3b3b;stroke-width:2;stroke-miterlimit:4;stroke-opacity:1;stroke-dasharray:none"
       sodipodi:type="arc" />
    <path
       sodipodi:type="arc"
       style="fill:none;stroke:#3b3b3b;stroke-width:2;stroke-miterlimit:4;stroke-opacity:1;stroke-dasharray:none"
       id="path5466"
       sodipodi:cx="1053"
       sodipodi:cy="1112.8999"
       sodipodi:rx="105"
       sodipodi:ry="50"
       d="m 1158,1112.8999 c 0,27.6142 -47.0101,50 -105,50 -57.9899,0 -105,-22.3858 -105,-50 0,-27.6142 47.0101,-50 105,-50 57.9899,0 105,22.3858 105,50 z"
       transform="matrix(0.7921236,0,0,0.86345955,-499.31552,-1332.8121)" />
    <path
       transform="matrix(0.7921236,0,0,0.86345955,244.56081,-2059.7178)"
       d="m 1158,1112.8999 c 0,27.6142 -47.0101,50 -105,50 -57.9899,0 -105,-22.3858 -105,-50 0,-27.6142 47.0101,-50 105,-50 57.9899,0 105,22.3858 105,50 z"
       sodipodi:ry="50"
       sodipodi:rx="105"
       sodipodi:cy="1112.8999"
       sodipodi:cx="1053"
       id="path5468"
       style="fill:none;stroke:#3b3b3b;stroke-width:2;stroke-miterlimit:4;stroke-opacity:1;stroke-dasharray:none"
       sodipodi:type="arc" />
  </g>
  <g
     inkscape:groupmode="layer"
     id="layer2"
     inkscape:label="rhythms"
     sodipodi:insensitive="true"
     transform="translate(0,-1467.8999)">
    <g
       id="g3136"
       transform="matrix(6.2266329,0,0,6.2266329,-321.30583,1103.7419)">
      <text
         id="text3098"
         font-size="2.2001"
         transform="translate(2.8453,2.8453)"
         style="font-size:2.20009995px;text-anchor:start;fill:currentColor;font-family:Century Schoolbook L">
        <tspan
           id="tspan3100" />
      </text>
      <line
         id="line3102"
         y2="0"
         x2="22.7122"
         y1="0"
         x1="0.050000001"
         transform="translate(2.8453,3.8953)"
         style="stroke:currentColor;stroke-width:0.1;stroke-linecap:round;stroke-linejoin:round" />
      <line
         id="line3104"
         y2="0"
         x2="22.7122"
         y1="0"
         x1="0.050000001"
         transform="translate(2.8453,5.8953)"
         style="stroke:currentColor;stroke-width:0.1;stroke-linecap:round;stroke-linejoin:round" />
      <line
         id="line3106"
         y2="0"
         x2="22.7122"
         y1="0"
         x1="0.050000001"
         transform="translate(2.8453,7.8953)"
         style="stroke:currentColor;stroke-width:0.1;stroke-linecap:round;stroke-linejoin:round" />
      <rect
         id="rect3108"
         ry="0"
         height="4"
         width="0.19"
         y="-2"
         x="0"
         transform="translate(25.4175,5.8953)"
         style="fill:currentColor" />
      <a
         id="a3110"
         xlink:href="textedit:///home/danny/dev/python/steel/notation/section1-3.ly:32:12:13">
        <path
           id="path3112"
           d="m -23,-116 c 0,28 11,42 40,42 33,0 78,-13 119,-31 L 4,53 c -7,9 -10,17 -10,25 0,34 50,66 87,99 25,22 37,52 37,83 0,24 -8,49 -25,69 l -35,42 c -3,3 -4,7 -4,10 0,9 9,15 17,15 4,0 8,-1 11,-5 L 233,211 c 7,-9 10,-17 10,-25 0,-34 -50,-66 -87,-99 -25,-22 -37,-52 -37,-83 0,-24 7,-49 24,-69 l 84,-99 c 3,-3 4,-7 4,-10 0,-9 -8,-16 -16,-16 -4,0 -9,2 -12,6 -18,21 -63,38 -97,38 -41,0 -53,-26 -53,-67 0,-35 11,-74 28,-94 5,-6 0,-13 -6,-13 -2,0 -4,0 -6,2 -45,54 -92,148 -92,202 z"
           transform="matrix(0.004,0,0,-0.004,15.9033,5.8953)"
           inkscape:connector-curvature="0"
           style="fill:currentColor" />
      </a>
      <a
         id="a3114"
         xlink:href="textedit:///home/danny/dev/python/steel/notation/section1-3.ly:33:12:13">
        <path
           id="path3116"
           d="m -23,-116 c 0,28 11,42 40,42 33,0 78,-13 119,-31 L 4,53 c -7,9 -10,17 -10,25 0,34 50,66 87,99 25,22 37,52 37,83 0,24 -8,49 -25,69 l -35,42 c -3,3 -4,7 -4,10 0,9 9,15 17,15 4,0 8,-1 11,-5 L 233,211 c 7,-9 10,-17 10,-25 0,-34 -50,-66 -87,-99 -25,-22 -37,-52 -37,-83 0,-24 7,-49 24,-69 l 84,-99 c 3,-3 4,-7 4,-10 0,-9 -8,-16 -16,-16 -4,0 -9,2 -12,6 -18,21 -63,38 -97,38 -41,0 -53,-26 -53,-67 0,-35 11,-74 28,-94 5,-6 0,-13 -6,-13 -2,0 -4,0 -6,2 -45,54 -92,148 -92,202 z"
           transform="matrix(0.004,0,0,-0.004,20.6604,5.8953)"
           inkscape:connector-curvature="0"
           style="fill:currentColor" />
      </a>
      <a
         id="a3118"
         xlink:href="textedit:///home/danny/dev/python/steel/notation/section1-3.ly:31:12:13">
        <path
           id="path3120"
           d="m 220,138 c 56,0 109,-29 109,-91 0,-72 -56,-121 -103,-149 -36,-21 -76,-36 -117,-36 -56,0 -109,29 -109,91 0,72 56,121 103,149 36,21 76,36 117,36 z"
           transform="matrix(0.004,0,0,-0.004,10.78,7.8953)"
           inkscape:connector-curvature="0"
           style="fill:currentColor" />
      </a>
      <path
         id="path3122"
         d="m 490,-250 h -92 c -6,0 -10,4 -10,10 v 480 c 0,6 4,10 10,10 h 92 c 6,0 10,-4 10,-10 v -480 c 0,-6 -4,-10 -10,-10 z m -220,0 h -93 c -6,0 -10,4 -10,10 v 480 c 0,6 4,10 10,10 h 93 c 6,0 10,-4 10,-10 v -480 c 0,-6 -4,-10 -10,-10 z"
         transform="matrix(0.004,0,0,-0.004,2.9753,5.8953)"
         inkscape:connector-curvature="0"
         style="fill:currentColor" />
      <path
         id="path3124"
         d="m 204,307 c 22,14 44,29 60,50 11,15 19,33 27,50 2,4 5,6 9,6 6,0 13,-5 13,-14 V 154 h 72 c 10,0 15,-7 15,-14 0,-7 -5,-15 -15,-15 h -72 v -8 c 0,-48 27,-94 72,-94 8,0 12,-5 12,-11 C 397,6 393,0 385,0 341,0 298,13 254,13 210,13 167,0 123,0 c -8,0 -12,6 -12,12 0,6 4,11 12,11 45,0 73,46 73,94 v 8 H 29 c -23,0 -31,14 -31,23 0,3 1,5 2,6 80,93 138,207 138,330 0,9 6,16 13,16 h 3 c 23,-7 47,-13 71,-13 24,0 48,6 71,13 2,1 3,1 5,1 11,0 18,-10 12,-17 L 29,154 h 167 v 131 c 0,8 1,17 8,22 z"
         transform="matrix(0.004,0,0,-0.004,7.1753,7.9097)"
         inkscape:connector-curvature="0"
         style="fill:currentColor" />
      <path
         id="path3126"
         d="m 150,477 c -29,0 -59,-8 -59,-33 0,-22 36,-25 36,-47 0,-32 -26,-58 -58,-58 -32,0 -57,26 -57,58 0,65 67,103 138,103 91,0 169,-33 169,-114 0,-43 -4,-82 -42,-100 -9,-4 -14,-12 -14,-21 0,-9 5,-18 14,-22 41,-19 56,-57 56,-103 C 333,48 254,0 154,0 75,0 0,42 0,113 c 0,36 30,66 66,66 36,0 65,-30 65,-66 0,-25 -40,-28 -40,-53 0,-27 32,-37 63,-37 49,0 63,61 63,117 v 16 c 0,54 -2,94 -50,94 H 87 c -10,0 -14,8 -14,15 0,7 4,14 14,14 h 80 c 49,0 50,43 50,99 v 8 c 0,54 -18,91 -67,91 z"
         transform="matrix(0.004,0,0,-0.004,7.3119,5.8953)"
         inkscape:connector-curvature="0"
         style="fill:currentColor" />
      <rect
         id="rect3128"
         ry="0.039999999"
         height="3.3122001"
         width="0.13"
         y="-1.5"
         x="-0.064999998"
         transform="translate(12.0312,5.8953)"
         style="fill:currentColor" />
    </g>
    <g
       id="g4450"
       transform="matrix(6.2266329,0,0,6.2266329,-316.46311,1032.1454)">
      <text
         id="text4410"
         font-size="2.2001"
         transform="translate(2.8453,2.8453)"
         style="font-size:2.20009995px;text-anchor:start;fill:currentColor;font-family:Century Schoolbook L">
        <tspan
           id="tspan4412" />
      </text>
      <line
         id="line4414"
         y2="0"
         x2="22.7122"
         y1="0"
         x1="0.050000001"
         transform="translate(2.8453,3.8953)"
         style="stroke:currentColor;stroke-width:0.1;stroke-linecap:round;stroke-linejoin:round" />
      <line
         id="line4416"
         y2="0"
         x2="22.7122"
         y1="0"
         x1="0.050000001"
         transform="translate(2.8453,5.8953)"
         style="stroke:currentColor;stroke-width:0.1;stroke-linecap:round;stroke-linejoin:round" />
      <line
         id="line4418"
         y2="0"
         x2="22.7122"
         y1="0"
         x1="0.050000001"
         transform="translate(2.8453,7.8953)"
         style="stroke:currentColor;stroke-width:0.1;stroke-linecap:round;stroke-linejoin:round" />
      <rect
         id="rect4420"
         ry="0"
         height="4"
         width="0.19"
         y="-2"
         x="0"
         transform="translate(25.4175,5.8953)"
         style="fill:currentColor" />
      <a
         id="a4422"
         xlink:href="textedit:///home/danny/dev/python/steel/notation/section1-4.ly:33:12:13">
        <path
           id="path4424"
           d="m -23,-116 c 0,28 11,42 40,42 33,0 78,-13 119,-31 L 4,53 c -7,9 -10,17 -10,25 0,34 50,66 87,99 25,22 37,52 37,83 0,24 -8,49 -25,69 l -35,42 c -3,3 -4,7 -4,10 0,9 9,15 17,15 4,0 8,-1 11,-5 L 233,211 c 7,-9 10,-17 10,-25 0,-34 -50,-66 -87,-99 -25,-22 -37,-52 -37,-83 0,-24 7,-49 24,-69 l 84,-99 c 3,-3 4,-7 4,-10 0,-9 -8,-16 -16,-16 -4,0 -9,2 -12,6 -18,21 -63,38 -97,38 -41,0 -53,-26 -53,-67 0,-35 11,-74 28,-94 5,-6 0,-13 -6,-13 -2,0 -4,0 -6,2 -45,54 -92,148 -92,202 z"
           transform="matrix(0.004,0,0,-0.004,18.3295,5.8953)"
           inkscape:connector-curvature="0"
           style="fill:currentColor" />
      </a>
      <a
         id="a4426"
         xlink:href="textedit:///home/danny/dev/python/steel/notation/section1-4.ly:34:12:13">
        <path
           id="path4428"
           d="m -23,-116 c 0,28 11,42 40,42 33,0 78,-13 119,-31 L 4,53 c -7,9 -10,17 -10,25 0,34 50,66 87,99 25,22 37,52 37,83 0,24 -8,49 -25,69 l -35,42 c -3,3 -4,7 -4,10 0,9 9,15 17,15 4,0 8,-1 11,-5 L 233,211 c 7,-9 10,-17 10,-25 0,-34 -50,-66 -87,-99 -25,-22 -37,-52 -37,-83 0,-24 7,-49 24,-69 l 84,-99 c 3,-3 4,-7 4,-10 0,-9 -8,-16 -16,-16 -4,0 -9,2 -12,6 -18,21 -63,38 -97,38 -41,0 -53,-26 -53,-67 0,-35 11,-74 28,-94 5,-6 0,-13 -6,-13 -2,0 -4,0 -6,2 -45,54 -92,148 -92,202 z"
           transform="matrix(0.004,0,0,-0.004,21.8735,5.8953)"
           inkscape:connector-curvature="0"
           style="fill:currentColor" />
      </a>
      <a
         id="a4430"
         xlink:href="textedit:///home/danny/dev/python/steel/notation/section1-4.ly:31:12:13">
        <path
           id="path4432"
           d="m 220,138 c 56,0 109,-29 109,-91 0,-72 -56,-121 -103,-149 -36,-21 -76,-36 -117,-36 -56,0 -109,29 -109,91 0,72 56,121 103,149 36,21 76,36 117,36 z"
           transform="matrix(0.004,0,0,-0.004,10.8753,7.8953)"
           inkscape:connector-curvature="0"
           style="fill:currentColor" />
      </a>
      <path
         id="path4434"
         d="m 490,-250 h -92 c -6,0 -10,4 -10,10 v 480 c 0,6 4,10 10,10 h 92 c 6,0 10,-4 10,-10 v -480 c 0,-6 -4,-10 -10,-10 z m -220,0 h -93 c -6,0 -10,4 -10,10 v 480 c 0,6 4,10 10,10 h 93 c 6,0 10,-4 10,-10 v -480 c 0,-6 -4,-10 -10,-10 z"
         transform="matrix(0.004,0,0,-0.004,2.9753,5.8953)"
         inkscape:connector-curvature="0"
         style="fill:currentColor" />
      <path
         id="path4436"
         d="m 359,27 c -49,0 -75,42 -75,75 0,38 27,77 72,77 4,0 9,0 14,-1 -28,37 -72,59 -120,59 C 144,237 137,164 137,51 V 0 -51 c 0,-113 7,-187 113,-187 80,0 139,70 158,151 2,7 7,10 12,10 6,0 13,-4 13,-12 0,-94 -105,-174 -183,-174 -68,0 -137,21 -184,70 C 17,-142 0,-71 0,0 c 0,71 17,142 66,193 47,49 116,69 184,69 87,0 160,-64 175,-150 1,-5 1,-9 1,-13 0,-40 -30,-72 -67,-72 z"
         transform="matrix(0.004,0,0,-0.004,7.1753,5.8953)"
         inkscape:connector-curvature="0"
         style="fill:currentColor" />
      <rect
         id="rect4438"
         ry="0.039999999"
         height="3.3122001"
         width="0.13"
         y="-1.5"
         x="-0.064999998"
         transform="translate(12.1264,5.8953)"
         style="fill:currentColor" />
      <a
         id="a4440"
         xlink:href="textedit:///home/danny/dev/python/steel/notation/section1-4.ly:32:12:13">
        <path
           id="path4442"
           d="m -23,-116 c 0,28 11,42 40,42 33,0 78,-13 119,-31 L 4,53 c -7,9 -10,17 -10,25 0,34 50,66 87,99 25,22 37,52 37,83 0,24 -8,49 -25,69 l -35,42 c -3,3 -4,7 -4,10 0,9 9,15 17,15 4,0 8,-1 11,-5 L 233,211 c 7,-9 10,-17 10,-25 0,-34 -50,-66 -87,-99 -25,-22 -37,-52 -37,-83 0,-24 7,-49 24,-69 l 84,-99 c 3,-3 4,-7 4,-10 0,-9 -8,-16 -16,-16 -4,0 -9,2 -12,6 -18,21 -63,38 -97,38 -41,0 -53,-26 -53,-67 0,-35 11,-74 28,-94 5,-6 0,-13 -6,-13 -2,0 -4,0 -6,2 -45,54 -92,148 -92,202 z"
           transform="matrix(0.004,0,0,-0.004,14.7855,5.8953)"
           inkscape:connector-curvature="0"
           style="fill:currentColor" />
      </a>
    </g>
  </g>
</svg>
